Model Small Std Two_CONVERTED.ufo
<glyph name="quotesingle" format="2">
  <advance width="196"/>
  <unicode hex="0027"/>
  <outline>
    <contour>
      <point x="150" y="684" type="line"/>
      <point x="154" y="682" type="line"/>
      <point x="223" y="785" type="line" smooth="yes"/>
      <point x="243" y="815"/>
      <point x="203" y="824"/>
      <point x="190" y="790" type="curve" smooth="yes"/>
    </contour>
  </outline>
</glyph>
<glyph name="parenleft" format="2">
  <advance width="465"/>
  <unicode hex="0028"/>
  <outline>
    <contour>
      <point x="718" y="900" type="line"/>
      <point x="505" y="829"/>
      <point x="289" y="624"/>
      <point x="177" y="377" type="curve" smooth="yes"/>
      <point x="122" y="254"/>
      <point x="92" y="118"/>
      <point x="92" y="-18" type="curve" smooth="yes"/>
      <point x="92" y="-131"/>
      <point x="113" y="-243"/>
      <point x="158" y="-346" type="curve"/>
      <point x="167" y="-344" type="line"/>
      <point x="126" y="-244"/>
      <point x="108" y="-141"/>
      <point x="108" y="-41" type="curve" smooth="yes"/>
      <point x="108" y="99"/>
      <point x="147" y="247"/>
      <point x="202" y="372" type="curve" smooth="yes"/>
      <point x="314" y="610"/>
      <point x="514" y="821"/>
      <point x="721" y="891" type="curve"/>
    </contour>
  </outline>
</glyph>
<glyph name="parenright" format="2">
  <advance width="599"/>
  <unicode hex="0029"/>
  <outline>
    <contour>
      <point x="-223" y="-393" type="line"/>
      <point x="-10" y="-322"/>
      <point x="206" y="-117"/>
      <point x="318" y="130" type="curve" smooth="yes"/>
      <point x="373" y="253"/>
      <point x="403" y="389"/>
      <point x="403" y="525" type="curve" smooth="yes"/>
      <point x="403" y="638"/>
      <point x="382" y="750"/>
      <point x="337" y="853" type="curve"/>
      <point x="328" y="851" type="line"/>
      <point x="369" y="751"/>
      <point x="387" y="648"/>
      <point x="387" y="548" type="curve" smooth="yes"/>
      <point x="387" y="408"/>
      <point x="348" y="260"/>
      <point x="293" y="135" type="curve" smooth="yes"/>
      <point x="181" y="-103"/>
      <point x="-19" y="-314"/>
      <point x="-226" y="-384" type="curve"/>
    </contour>
  </outline>
</glyph>
<glyph name="one" format="2">
  <advance width="302"/>
  <unicode hex="0031"/>
  <outline>
    <contour>
      <point x="93" y="204" type="line"/>
      <point x="85" y="229"/>
      <point x="81" y="258"/>
      <point x="80" y="278" type="curve"/>
      <point x="89" y="392"/>
      <point x="216" y="494"/>
      <point x="323" y="563" type="curve"/>
      <point x="230" y="430"/>
      <point x="117" y="209"/>
      <point x="38" y="-1" type="curve"/>
      <point x="61" y="-1" type="line"/>
      <point x="143" y="214"/>
      <point x="255" y="446"/>
      <point x="342" y="575" type="curve"/>
      <point x="378" y="597" type="line" smooth="yes"/>
      <point x="408" y="616"/>
      <point x="441" y="638"/>
      <point x="458" y="652" type="curve"/>
      <point x="477" y="670"/>
      <point x="472" y="690"/>
      <point x="453" y="690" type="curve" smooth="yes"/>
      <point x="427" y="690"/>
      <point x="382" y="646"/>
      <point x="335" y="581" type="curve"/>
      <point x="227" y="514"/>
      <point x="83" y="415"/>
      <point x="72" y="288" type="curve"/>
      <point x="72" y="264"/>
      <point x="77" y="230"/>
      <point x="84" y="209" type="curve"/>
    </contour>
    <contour>
      <point x="446" y="677" type="curve" smooth="yes"/>
      <point x="457" y="677"/>
      <point x="459" y="666"/>
      <point x="447" y="655" type="curve"/>
      <point x="430" y="641"/>
      <point x="404" y="624"/>
      <point x="374" y="605" type="curve" smooth="yes"/>
      <point x="354" y="592" type="line"/>
      <point x="393" y="647"/>
      <point x="424" y="677"/>
    </contour>
  </outline>
</glyph>
<glyph name="semicolon" format="2">
  <advance width="302"/>
  <unicode hex="003B"/>
  <outline>
    <contour>
      <point x="163" y="419" type="curve"/>
      <point x="160" y="407"/>
      <point x="165" y="393"/>
      <point x="181" y="393" type="curve" smooth="yes"/>
      <point x="195" y="393"/>
      <point x="210" y="402"/>
      <point x="214" y="417" type="curve"/>
      <point x="220" y="433"/>
      <point x="210" y="444"/>
      <point x="197" y="444" type="curve" smooth="yes"/>
      <point x="182" y="444"/>
      <point x="168" y="433"/>
    </contour>
    <contour>
      <point x="38" y="42" type="curve" smooth="yes"/>
      <point x="22" y="42"/>
      <point x="7" y="28"/>
      <point x="7" y="13" type="curve" smooth="yes"/>
      <point x="7" y="4"/>
      <point x="12" y="-5"/>
      <point x="24" y="-5" type="curve" smooth="yes"/>
      <point x="31" y="-5" type="line"/>
      <point x="32" y="-7"/>
      <point x="30" y="-13"/>
      <point x="29" y="-15" type="curve"/>
      <point x="15" y="-35"/>
      <point x="0" y="-53"/>
      <point x="-20" y="-67" type="curve"/>
      <point x="-18" y="-76" type="line"/>
      <point x="13" y="-55"/>
      <point x="56" y="-12"/>
      <point x="56" y="19" type="curve" smooth="yes"/>
      <point x="56" y="33"/>
      <point x="47" y="42"/>
    </contour>
  </outline>
</glyph>
<glyph name="equal" format="2">
  <advance width="582"/>
  <unicode hex="003D"/>
  <outline>
    <contour>
      <point x="151" y="362" type="line"/>
      <point x="483" y="362" type="line"/>
      <point x="483" y="371" type="line"/>
      <point x="151" y="371" type="line"/>
    </contour>
    <contour>
      <point x="103" y="257" type="line"/>
      <point x="435" y="257" type="line"/>
      <point x="435" y="266" type="line"/>
      <point x="103" y="266" type="line"/>
    </contour>
  </outline>
</glyph>
<glyph name="question" format="2">
  <advance width="575"/>
  <unicode hex="003F"/>
  <outline>
    <contour>
      <point x="100" y="122" type="line"/>
      <point x="112" y="242"/>
      <point x="231" y="337"/>
      <point x="341" y="424" type="curve" smooth="yes"/>
      <point x="454" y="512"/>
      <point x="574" y="611"/>
      <point x="574" y="729" type="curve" smooth="yes"/>
      <point x="574" y="820"/>
      <point x="489" y="881"/>
      <point x="395" y="881" type="curve" smooth="yes"/>
      <point x="287" y="881"/>
      <point x="173" y="798"/>
      <point x="173" y="711" type="curve" smooth="yes"/>
      <point x="173" y="688"/>
      <point x="186" y="650"/>
      <point x="215" y="648" type="curve"/>
      <point x="216" y="656" type="line"/>
      <point x="193" y="659"/>
      <point x="189" y="685"/>
      <point x="189" y="703" type="curve" smooth="yes"/>
      <point x="189" y="789"/>
      <point x="296" y="873"/>
      <point x="399" y="873" type="curve" smooth="yes"/>
      <point x="481" y="873"/>
      <point x="553" y="822"/>
      <point x="553" y="724" type="curve" smooth="yes"/>
      <point x="553" y="607"/>
      <point x="433" y="508"/>
      <point x="321" y="420" type="curve" smooth="yes"/>
      <point x="212" y="333"/>
      <point x="95" y="240"/>
      <point x="84" y="122" type="curve"/>
    </contour>
    <contour>
      <point x="3" y="16" type="curve"/>
      <point x="0" y="4"/>
      <point x="5" y="-10"/>
      <point x="21" y="-10" type="curve" smooth="yes"/>
      <point x="35" y="-10"/>
      <point x="50" y="-1"/>
      <point x="54" y="14" type="curve"/>
      <point x="60" y="30"/>
      <point x="50" y="41"/>
      <point x="37" y="41" type="curve" smooth="yes"/>
      <point x="22" y="41"/>
      <point x="8" y="30"/>
    </contour>
  </outline>
</glyph>
<glyph name="F" format="2">
  <advance width="649"/>
  <unicode hex="0046"/>
  <outline>
    <contour>
      <point x="36" y="508" type="curve"/>
      <point x="25" y="522"/>
      <point x="20" y="539"/>
      <point x="20" y="555" type="curve" smooth="yes"/>
      <point x="20" y="636"/>
      <point x="104" y="717"/>
      <point x="202" y="717" type="curve" smooth="yes"/>
      <point x="271" y="717"/>
      <point x="335" y="670"/>
      <point x="335" y="574" type="curve" smooth="yes"/>
      <point x="335" y="431"/>
      <point x="198" y="309"/>
      <point x="70" y="301" type="curve"/>
      <point x="-74" y="304"/>
      <point x="-137" y="415"/>
      <point x="-137" y="520" type="curve" smooth="yes"/>
      <point x="-137" y="728"/>
      <point x="87" y="952"/>
      <point x="395" y="952" type="curve" smooth="yes"/>
      <point x="626" y="952"/>
      <point x="900" y="815"/>
      <point x="1120" y="815" type="curve" smooth="yes"/>
      <point x="1181" y="815"/>
      <point x="1233" y="827"/>
      <point x="1278" y="861" type="curve"/>
      <point x="1276" y="870" type="line"/>
      <point x="1230" y="836"/>
      <point x="1177" y="823"/>
      <point x="1120" y="823" type="curve" smooth="yes"/>
      <point x="905" y="823"/>
      <point x="627" y="962"/>
      <point x="391" y="962" type="curve" smooth="yes"/>
      <point x="74" y="962"/>
      <point x="-150" y="747"/>
      <point x="-150" y="532" type="curve" smooth="yes"/>
      <point x="-150" y="419"/>
      <point x="-84" y="297"/>
      <point x="60" y="293" type="curve" smooth="yes"/>
      <point x="200" y="293"/>
      <point x="352" y="423"/>
      <point x="352" y="573" type="curve" smooth="yes"/>
      <point x="352" y="671"/>
      <point x="282" y="725"/>
      <point x="203" y="725" type="curve" smooth="yes"/>
      <point x="109" y="725"/>
      <point x="7" y="639"/>
      <point x="7" y="559" type="curve" smooth="yes"/>
      <point x="7" y="539"/>
      <point x="15" y="511"/>
    </contour>
    <contour>
      <point x="357" y="481" type="line"/>
      <point x="446" y="481" type="line"/>
      <point x="421" y="435"/>
      <point x="400" y="393"/>
      <point x="379" y="352" type="curve" smooth="yes"/>
      <point x="367" y="328"/>
      <point x="355" y="304"/>
      <point x="344" y="284" type="curve" smooth="yes"/>
      <point x="277" y="157"/>
      <point x="128" y="-60"/>
      <point x="-44" y="-50" type="curve" smooth="yes"/>
      <point x="-86" y="-48"/>
      <point x="-148" y="-15"/>
      <point x="-148" y="48" type="curve" smooth="yes"/>
      <point x="-148" y="61"/>
      <point x="-145" y="76"/>
      <point x="-138" y="93" type="curve"/>
      <point x="-142" y="95" type="line"/>
      <point x="-152" y="76"/>
      <point x="-155" y="57"/>
      <point x="-155" y="40" type="curve" smooth="yes"/>
      <point x="-155" y="-26"/>
      <point x="-92" y="-58"/>
      <point x="-44" y="-60" type="curve" smooth="yes"/>
      <point x="164" y="-71"/>
      <point x="287" y="125"/>
      <point x="373" y="290" type="curve" smooth="yes"/>
      <point x="386" y="315"/>
      <point x="400" y="344"/>
      <point x="415" y="375" type="curve" smooth="yes"/>
      <point x="431" y="408"/>
      <point x="448" y="445"/>
      <point x="466" y="481" type="curve"/>
      <point x="596" y="481" type="line"/>
      <point x="596" y="489" type="line"/>
      <point x="470" y="489" type="line"/>
      <point x="541" y="622"/>
      <point x="627" y="758"/>
      <point x="734" y="785" type="curve"/>
      <point x="736" y="801" type="line"/>
      <point x="626" y="765"/>
      <point x="527" y="623"/>
      <point x="451" y="489" type="curve"/>
      <point x="357" y="489" type="line"/>
    </contour>
  </outline>
</glyph>
<glyph name="G" format="2">
  <advance width="784"/>
  <unicode hex="0047"/>
  <outline>
    <contour>
      <point x="541" y="131" type="curve"/>
      <point x="541" y="130" type="line"/>
      <point x="477" y="80"/>
      <point x="401" y="45"/>
      <point x="334" y="45" type="curve" smooth="yes"/>
      <point x="196" y="45"/>
      <point x="117" y="153"/>
      <point x="117" y="291" type="curve" smooth="yes"/>
      <point x="117" y="369"/>
      <point x="144" y="459"/>
      <point x="190" y="546" type="curve"/>
      <point x="238" y="503"/>
      <point x="303" y="477"/>
      <point x="373" y="477" type="curve" smooth="yes"/>
      <point x="662" y="477"/>
      <point x="857" y="687"/>
      <point x="857" y="798" type="curve" smooth="yes"/>
      <point x="857" y="889"/>
      <point x="769" y="922"/>
      <point x="697" y="922" type="curve" smooth="yes"/>
      <point x="472" y="922"/>
      <point x="282" y="750"/>
      <point x="180" y="576" type="curve"/>
      <point x="154" y="611"/>
      <point x="138" y="656"/>
      <point x="138" y="705" type="curve" smooth="yes"/>
      <point x="138" y="805"/>
      <point x="212" y="890"/>
      <point x="311" y="890" type="curve" smooth="yes"/>
      <point x="337" y="890"/>
      <point x="354" y="878"/>
      <point x="365" y="868" type="curve"/>
      <point x="368" y="870" type="line"/>
      <point x="350" y="889"/>
      <point x="328" y="898"/>
      <point x="305" y="898" type="curve" smooth="yes"/>
      <point x="206" y="898"/>
      <point x="119" y="812"/>
      <point x="119" y="708" type="curve" smooth="yes"/>
      <point x="119" y="651"/>
      <point x="140" y="602"/>
      <point x="172" y="564" type="curve"/>
      <point x="124" y="478"/>
      <point x="97" y="386"/>
      <point x="97" y="307" type="curve" smooth="yes"/>
      <point x="97" y="165"/>
      <point x="172" y="36"/>
      <point x="337" y="36" type="curve" smooth="yes"/>
      <point x="407" y="36"/>
      <point x="476" y="63"/>
      <point x="537" y="105" type="curve"/>
      <point x="524" y="11"/>
      <point x="503" y="-89"/>
      <point x="454" y="-195" type="curve" smooth="yes"/>
      <point x="386" y="-330"/>
      <point x="239" y="-455"/>
      <point x="95" y="-455" type="curve" smooth="yes"/>
      <point x="-36" y="-455"/>
      <point x="-141" y="-345"/>
      <point x="-137" y="-203" type="curve" smooth="yes"/>
      <point x="-133" y="-60"/>
      <point x="-17" y="50"/>
      <point x="100" y="50" type="curve" smooth="yes"/>
      <point x="185" y="50"/>
      <point x="238" y="-11"/>
      <point x="236" y="-77" type="curve" smooth="yes"/>
      <point x="234" y="-142"/>
      <point x="180" y="-225"/>
      <point x="97" y="-225" type="curve" smooth="yes"/>
      <point x="85" y="-225"/>
      <point x="44" y="-223"/>
      <point x="30" y="-182" type="curve"/>
      <point x="26" y="-185" type="line"/>
      <point x="42" y="-228"/>
      <point x="76" y="-233"/>
      <point x="100" y="-233" type="curve" smooth="yes"/>
      <point x="191" y="-233"/>
      <point x="248" y="-147"/>
      <point x="250" y="-78" type="curve" smooth="yes"/>
      <point x="252" y="-3"/>
      <point x="191" y="58"/>
      <point x="100" y="58" type="curve" smooth="yes"/>
      <point x="-24" y="58"/>
      <point x="-154" y="-51"/>
      <point x="-158" y="-200" type="curve" smooth="yes"/>
      <point x="-162" y="-349"/>
      <point x="-44" y="-463"/>
      <point x="100" y="-463" type="curve" smooth="yes"/>
      <point x="260" y="-463"/>
      <point x="418" y="-330"/>
      <point x="477" y="-207" type="curve" smooth="yes"/>
      <point x="530" y="-95"/>
      <point x="542" y="14"/>
      <point x="550" y="115" type="curve"/>
      <point x="635" y="177"/>
      <point x="709" y="275"/>
      <point x="743" y="352" type="curve" smooth="yes"/>
      <point x="764" y="397"/>
      <point x="781" y="446"/>
      <point x="781" y="480" type="curve" smooth="yes"/>
      <point x="781" y="515"/>
      <point x="765" y="534"/>
      <point x="743" y="534" type="curve" smooth="yes"/>
      <point x="657" y="534"/>
      <point x="569" y="365"/>
    </contour>
    <contour>
      <point x="839" y="813" type="curve" smooth="yes"/>
      <point x="839" y="704"/>
      <point x="656" y="485"/>
      <point x="374" y="485" type="curve" smooth="yes"/>
      <point x="306" y="485"/>
      <point x="239" y="514"/>
      <point x="196" y="557" type="curve"/>
      <point x="299" y="733"/>
      <point x="489" y="913"/>
      <point x="704" y="913" type="curve" smooth="yes"/>
      <point x="779" y="913"/>
      <point x="839" y="875"/>
    </contour>
    <contour>
      <point x="725" y="358" type="line" smooth="yes"/>
      <point x="694" y="284"/>
      <point x="629" y="197"/>
      <point x="552" y="135" type="curve"/>
      <point x="570" y="333"/>
      <point x="681" y="526"/>
      <point x="743" y="526" type="curve" smooth="yes"/>
      <point x="756" y="526"/>
      <point x="764" y="513"/>
      <point x="764" y="488" type="curve" smooth="yes"/>
      <point x="764" y="446"/>
      <point x="745" y="407"/>
      <point x="731" y="373" type="curve" smooth="yes"/>
    </contour>
  </outline>
</glyph>
<glyph name="V" format="2">
  <advance width="979"/>
  <unicode hex="0056"/>
  <outline>
    <contour>
      <point x="882" y="856" type="curve"/>
      <point x="897" y="863"/>
      <point x="908" y="867"/>
      <point x="918" y="867" type="curve" smooth="yes"/>
      <point x="970" y="867"/>
      <point x="989" y="815"/>
      <point x="991" y="776" type="curve"/>
      <point x="977" y="543"/>
      <point x="684" y="186"/>
      <point x="418" y="57" type="curve" smooth="yes"/>
      <point x="394" y="45"/>
      <point x="355" y="27"/>
      <point x="317" y="10" type="curve"/>
      <point x="459" y="154"/>
      <point x="613" y="441"/>
      <point x="613" y="634" type="curve" smooth="yes"/>
      <point x="613" y="795"/>
      <point x="530" y="938"/>
      <point x="320" y="938" type="curve" smooth="yes"/>
      <point x="133" y="938"/>
      <point x="-86" y="801"/>
      <point x="-86" y="565" type="curve" smooth="yes"/>
      <point x="-86" y="466"/>
      <point x="-27" y="358"/>
      <point x="100" y="355" type="curve" smooth="yes"/>
      <point x="229" y="355"/>
      <point x="355" y="468"/>
      <point x="355" y="602" type="curve" smooth="yes"/>
      <point x="355" y="687"/>
      <point x="293" y="732"/>
      <point x="224" y="732" type="curve" smooth="yes"/>
      <point x="136" y="732"/>
      <point x="52" y="659"/>
      <point x="52" y="586" type="curve" smooth="yes"/>
      <point x="52" y="568"/>
      <point x="57" y="542"/>
      <point x="80" y="541" type="curve"/>
      <point x="70" y="557"/>
      <point x="66" y="570"/>
      <point x="66" y="583" type="curve" smooth="yes"/>
      <point x="66" y="654"/>
      <point x="138" y="723"/>
      <point x="223" y="723" type="curve" smooth="yes"/>
      <point x="283" y="723"/>
      <point x="337" y="686"/>
      <point x="337" y="603" type="curve" smooth="yes"/>
      <point x="337" y="476"/>
      <point x="222" y="373"/>
      <point x="109" y="363" type="curve"/>
      <point x="-16" y="365"/>
      <point x="-71" y="462"/>
      <point x="-71" y="553" type="curve" smooth="yes"/>
      <point x="-71" y="738"/>
      <point x="81" y="929"/>
      <point x="320" y="929" type="curve" smooth="yes"/>
      <point x="517" y="929"/>
      <point x="592" y="810"/>
      <point x="592" y="654" type="curve" smooth="yes"/>
      <point x="592" y="452"/>
      <point x="439" y="139"/>
      <point x="295" y="0" type="curve"/>
      <point x="225" y="-30" type="line" smooth="yes"/>
      <point x="185" y="-48"/>
      <point x="179" y="-70"/>
      <point x="199" y="-70" type="curve" smooth="yes"/>
      <point x="207" y="-70"/>
      <point x="219" y="-66"/>
      <point x="235" y="-57" type="curve" smooth="yes"/>
      <point x="254" y="-46"/>
      <point x="277" y="-28"/>
      <point x="302" y="-5" type="curve"/>
      <point x="345" y="13"/>
      <point x="393" y="35"/>
      <point x="422" y="49" type="curve" smooth="yes"/>
      <point x="699" y="190"/>
      <point x="1005" y="508"/>
      <point x="1005" y="765" type="curve" smooth="yes"/>
      <point x="1003" y="821"/>
      <point x="971" y="877"/>
      <point x="914" y="877" type="curve" smooth="yes"/>
      <point x="902" y="877"/>
      <point x="879" y="870"/>
    </contour>
    <contour>
      <point x="240" y="-44" type="curve" smooth="yes"/>
      <point x="203" y="-64"/>
      <point x="201" y="-54"/>
      <point x="231" y="-38" type="curve" smooth="yes"/>
      <point x="245" y="-31"/>
      <point x="259" y="-25"/>
      <point x="275" y="-18" type="curve"/>
      <point x="262" y="-30"/>
      <point x="258" y="-34"/>
    </contour>
  </outline>
</glyph>
<glyph name="underscore" format="2">
  <advance width="504"/>
  <unicode hex="005F"/>
  <outline>
    <contour>
      <point x="-1" y="-30" type="line"/>
      <point x="331" y="-30" type="line"/>
      <point x="331" y="-21" type="line"/>
      <point x="-1" y="-21" type="line"/>
    </contour>
  </outline>
</glyph>
<glyph name="e" format="2">
  <advance width="343"/>
  <unicode hex="0065"/>
  <outline>
    <contour>
      <point x="341" y="284" type="line"/>
      <point x="276" y="147"/>
      <point x="167" y="-4"/>
      <point x="54" y="-4" type="curve" smooth="yes"/>
      <point x="9" y="-4"/>
      <point x="-21" y="37"/>
      <point x="-21" y="111" type="curve" smooth="yes"/>
      <point x="-21" y="128"/>
      <point x="-19" y="147"/>
      <point x="-16" y="167" type="curve" smooth="yes"/>
      <point x="-5" y="228"/>
      <point x="17" y="286"/>
      <point x="46" y="341" type="curve"/>
      <point x="51" y="318"/>
      <point x="78" y="290"/>
      <point x="122" y="290" type="curve" smooth="yes"/>
      <point x="209" y="290"/>
      <point x="321" y="422"/>
      <point x="321" y="500" type="curve" smooth="yes"/>
      <point x="321" y="532"/>
      <point x="301" y="565"/>
      <point x="265" y="565" type="curve" smooth="yes"/>
      <point x="174" y="565"/>
      <point x="2" y="380"/>
      <point x="-34" y="175" type="curve" smooth="yes"/>
      <point x="-37" y="156"/>
      <point x="-39" y="134"/>
      <point x="-39" y="117" type="curve" smooth="yes"/>
      <point x="-39" y="35"/>
      <point x="-3" y="-14"/>
      <point x="54" y="-14" type="curve" smooth="yes"/>
      <point x="170" y="-14"/>
      <point x="281" y="140"/>
      <point x="349" y="282" type="curve"/>
    </contour>
    <contour>
      <point x="117" y="299" type="curve" smooth="yes"/>
      <point x="78" y="299"/>
      <point x="55" y="330"/>
      <point x="53" y="350" type="curve"/>
      <point x="113" y="463"/>
      <point x="207" y="556"/>
      <point x="264" y="556" type="curve" smooth="yes"/>
      <point x="293" y="556"/>
      <point x="306" y="534"/>
      <point x="306" y="507" type="curve" smooth="yes"/>
      <point x="306" y="418"/>
      <point x="198" y="299"/>
    </contour>
  </outline>
</glyph>
<glyph name="h" format="2">
  <advance width="407"/>
  <unicode hex="0068"/>
  <outline>
    <contour>
      <point x="186" y="7" type="curve" smooth="yes"/>
      <point x="161" y="7"/>
      <point x="143" y="40"/>
      <point x="149" y="86" type="curve" smooth="yes"/>
      <point x="157" y="157"/>
      <point x="195" y="216"/>
      <point x="237" y="281" type="curve" smooth="yes"/>
      <point x="248" y="298" type="line" smooth="yes"/>
      <point x="286" y="356"/>
      <point x="325" y="434"/>
      <point x="333" y="490" type="curve" smooth="yes"/>
      <point x="338" y="543"/>
      <point x="313" y="567"/>
      <point x="281" y="567" type="curve" smooth="yes"/>
      <point x="216" y="567"/>
      <point x="105" y="426"/>
      <point x="25" y="297" type="curve"/>
      <point x="337" y="973" type="line"/>
      <point x="315" y="973" type="line"/>
      <point x="-131" y="5" type="line"/>
      <point x="-109" y="5" type="line"/>
      <point x="-83" y="63"/>
      <point x="-53" y="125"/>
      <point x="-27" y="183" type="curve" smooth="yes"/>
      <point x="43" y="321"/>
      <point x="203" y="558"/>
      <point x="281" y="558" type="curve" smooth="yes"/>
      <point x="302" y="558"/>
      <point x="329" y="546"/>
      <point x="322" y="493" type="curve" smooth="yes"/>
      <point x="316" y="441"/>
      <point x="287" y="399"/>
      <point x="256" y="353" type="curve" smooth="yes"/>
      <point x="226" y="307" type="line" smooth="yes"/>
      <point x="181" y="236"/>
      <point x="146" y="168"/>
      <point x="137" y="92" type="curve" smooth="yes"/>
      <point x="132" y="42"/>
      <point x="154" y="-2"/>
      <point x="185" y="-2" type="curve" smooth="yes"/>
      <point x="255" y="-2"/>
      <point x="351" y="146"/>
      <point x="413" y="282" type="curve"/>
      <point x="405" y="284" type="line"/>
      <point x="346" y="156"/>
      <point x="252" y="7"/>
    </contour>
  </outline>
</glyph>
<glyph name="j" format="2">
  <advance width="190"/>
  <unicode hex="006A"/>
  <outline>
    <contour>
      <point x="27" y="363" type="curve" smooth="yes"/>
      <point x="14" y="333"/>
      <point x="-1" y="287"/>
      <point x="-16" y="243" type="curve" smooth="yes"/>
      <point x="-27" y="211"/>
      <point x="-38" y="178"/>
      <point x="-48" y="151" type="curve" smooth="yes"/>
      <point x="-65" y="103"/>
      <point x="-85" y="55"/>
      <point x="-106" y="10" type="curve"/>
      <point x="-124" y="3" type="line" smooth="yes"/>
      <point x="-162" y="-13"/>
      <point x="-201" y="-26"/>
      <point x="-238" y="-39" type="curve" smooth="yes"/>
      <point x="-293" y="-59"/>
      <point x="-346" y="-78"/>
      <point x="-381" y="-97" type="curve" smooth="yes"/>
      <point x="-421" y="-120"/>
      <point x="-449" y="-146"/>
      <point x="-449" y="-181" type="curve" smooth="yes"/>
      <point x="-449" y="-214"/>
      <point x="-419" y="-239"/>
      <point x="-374" y="-239" type="curve" smooth="yes"/>
      <point x="-304" y="-239"/>
      <point x="-186" y="-176"/>
      <point x="-112" y="-47" type="curve" smooth="yes"/>
      <point x="-103" y="-30"/>
      <point x="-93" y="-9"/>
      <point x="-84" y="11" type="curve"/>
      <point x="25" y="65"/>
      <point x="142" y="161"/>
      <point x="196" y="282" type="curve"/>
      <point x="188" y="284" type="line"/>
      <point x="137" y="167"/>
      <point x="29" y="77"/>
      <point x="-80" y="23" type="curve"/>
      <point x="-60" y="71"/>
      <point x="-43" y="122"/>
      <point x="-25" y="176" type="curve" smooth="yes"/>
      <point x="-2" y="244"/>
      <point x="23" y="316"/>
      <point x="46" y="363" type="curve" smooth="yes"/>
      <point x="76" y="423" type="line" smooth="yes"/>
      <point x="107" y="481"/>
      <point x="137" y="526"/>
      <point x="185" y="563" type="curve"/>
      <point x="149" y="563" type="line"/>
      <point x="113" y="536"/>
      <point x="74" y="461"/>
      <point x="58" y="430" type="curve" smooth="yes"/>
      <point x="47" y="409"/>
      <point x="37" y="386"/>
    </contour>
    <contour>
      <point x="-134" y="-44" type="line" smooth="yes"/>
      <point x="-202" y="-165"/>
      <point x="-304" y="-230"/>
      <point x="-367" y="-230" type="curve" smooth="yes"/>
      <point x="-407" y="-230"/>
      <point x="-429" y="-212"/>
      <point x="-429" y="-181" type="curve" smooth="yes"/>
      <point x="-429" y="-165"/>
      <point x="-422" y="-148"/>
      <point x="-410" y="-134" type="curve"/>
      <point x="-411" y="-134" type="line"/>
      <point x="-381" y="-102"/>
      <point x="-311" y="-75"/>
      <point x="-229" y="-45" type="curve" smooth="yes"/>
      <point x="-193" y="-32"/>
      <point x="-150" y="-17"/>
      <point x="-112" y="-1" type="curve"/>
      <point x="-124" y="-25" type="line"/>
    </contour>
    <contour>
      <point x="227" y="735" type="line"/>
      <point x="225" y="725"/>
      <point x="230" y="715"/>
      <point x="242" y="715" type="curve" smooth="yes"/>
      <point x="253" y="715"/>
      <point x="265" y="722"/>
      <point x="268" y="734" type="curve"/>
      <point x="273" y="747"/>
      <point x="266" y="756"/>
      <point x="254" y="756" type="curve" smooth="yes"/>
      <point x="242" y="756"/>
      <point x="231" y="748"/>
      <point x="227" y="736" type="curve"/>
    </contour>
  </outline>
</glyph>
<glyph name="l" format="2">
  <advance width="187"/>
  <unicode hex="006C"/>
  <outline>
    <contour>
      <point x="314" y="973" type="line"/>
      <point x="-57" y="162" type="line" smooth="yes"/>
      <point x="-72" y="128"/>
      <point x="-79" y="94"/>
      <point x="-79" y="68" type="curve" smooth="yes"/>
      <point x="-79" y="26"/>
      <point x="-62" y="-2"/>
      <point x="-35" y="-2" type="curve" smooth="yes"/>
      <point x="35" y="-2"/>
      <point x="131" y="146"/>
      <point x="193" y="282" type="curve"/>
      <point x="185" y="284" type="line"/>
      <point x="126" y="156"/>
      <point x="31" y="6"/>
      <point x="-34" y="6" type="curve" smooth="yes"/>
      <point x="-55" y="6"/>
      <point x="-67" y="27"/>
      <point x="-67" y="60" type="curve" smooth="yes"/>
      <point x="-67" y="84"/>
      <point x="-60" y="117"/>
      <point x="-44" y="151" type="curve" smooth="yes"/>
      <point x="339" y="973" type="line"/>
    </contour>
  </outline>
</glyph>
<glyph name="m" format="2">
  <advance width="768"/>
  <unicode hex="006D"/>
  <outline>
    <contour>
      <point x="435" y="558" type="curve" smooth="yes"/>
      <point x="458" y="558"/>
      <point x="473" y="537"/>
      <point x="473" y="503" type="curve" smooth="yes"/>
      <point x="473" y="482"/>
      <point x="467" y="455"/>
      <point x="452" y="424" type="curve"/>
      <point x="448" y="414"/>
      <point x="440" y="398"/>
      <point x="435" y="388" type="curve"/>
      <point x="382" y="316"/>
      <point x="325" y="223"/>
      <point x="298" y="165" type="curve" smooth="yes"/>
      <point x="255" y="75"/>
      <point x="220" y="-2"/>
      <point x="247" y="-2" type="curve" smooth="yes"/>
      <point x="264" y="-2"/>
      <point x="303" y="46"/>
      <point x="364" y="187" type="curve" smooth="yes"/>
      <point x="456" y="400" type="line"/>
      <point x="520" y="481"/>
      <point x="597" y="558"/>
      <point x="642" y="558" type="curve" smooth="yes"/>
      <point x="663" y="558"/>
      <point x="690" y="546"/>
      <point x="683" y="493" type="curve" smooth="yes"/>
      <point x="677" y="441"/>
      <point x="648" y="399"/>
      <point x="617" y="353" type="curve" smooth="yes"/>
      <point x="587" y="307" type="line" smooth="yes"/>
      <point x="542" y="236"/>
      <point x="507" y="168"/>
      <point x="498" y="92" type="curve" smooth="yes"/>
      <point x="493" y="42"/>
      <point x="515" y="-2"/>
      <point x="546" y="-2" type="curve" smooth="yes"/>
      <point x="616" y="-2"/>
      <point x="712" y="146"/>
      <point x="774" y="282" type="curve"/>
      <point x="766" y="284" type="line"/>
      <point x="707" y="156"/>
      <point x="613" y="7"/>
      <point x="547" y="7" type="curve" smooth="yes"/>
      <point x="522" y="7"/>
      <point x="504" y="40"/>
      <point x="510" y="86" type="curve" smooth="yes"/>
      <point x="518" y="157"/>
      <point x="556" y="216"/>
      <point x="598" y="281" type="curve" smooth="yes"/>
      <point x="609" y="298" type="line" smooth="yes"/>
      <point x="647" y="356"/>
      <point x="686" y="434"/>
      <point x="694" y="490" type="curve" smooth="yes"/>
      <point x="699" y="543"/>
      <point x="674" y="567"/>
      <point x="642" y="567" type="curve" smooth="yes"/>
      <point x="596" y="567"/>
      <point x="533" y="512"/>
      <point x="472" y="436" type="curve"/>
      <point x="480" y="460"/>
      <point x="483" y="480"/>
      <point x="483" y="499" type="curve" smooth="yes"/>
      <point x="483" y="541"/>
      <point x="463" y="567"/>
      <point x="435" y="567" type="curve" smooth="yes"/>
      <point x="389" y="567"/>
      <point x="326" y="512"/>
      <point x="265" y="436" type="curve"/>
      <point x="273" y="460"/>
      <point x="276" y="480"/>
      <point x="276" y="499" type="curve" smooth="yes"/>
      <point x="276" y="541"/>
      <point x="256" y="567"/>
      <point x="228" y="567" type="curve" smooth="yes"/>
      <point x="157" y="567"/>
      <point x="61" y="420"/>
      <point x="-2" y="284" type="curve"/>
      <point x="6" y="282" type="line"/>
      <point x="66" y="410"/>
      <point x="161" y="558"/>
      <point x="228" y="558" type="curve" smooth="yes"/>
      <point x="251" y="558"/>
      <point x="266" y="537"/>
      <point x="266" y="503" type="curve" smooth="yes"/>
      <point x="266" y="482"/>
      <point x="260" y="455"/>
      <point x="245" y="424" type="curve"/>
      <point x="241" y="414"/>
      <point x="233" y="398"/>
      <point x="228" y="388" type="curve"/>
      <point x="175" y="316"/>
      <point x="118" y="223"/>
      <point x="91" y="165" type="curve" smooth="yes"/>
      <point x="48" y="75"/>
      <point x="12" y="-2"/>
      <point x="40" y="-2" type="curve" smooth="yes"/>
      <point x="57" y="-2"/>
      <point x="96" y="46"/>
      <point x="157" y="187" type="curve" smooth="yes"/>
      <point x="249" y="400" type="line"/>
      <point x="313" y="481"/>
      <point x="390" y="558"/>
    </contour>
    <contour>
      <point x="40" y="7" type="curve" smooth="yes"/>
      <point x="28" y="7"/>
      <point x="56" y="74"/>
      <point x="99" y="160" type="curve" smooth="yes"/>
      <point x="121" y="209"/>
      <point x="157" y="271"/>
      <point x="203" y="338" type="curve"/>
      <point x="135" y="194" type="line" smooth="yes"/>
      <point x="57" y="31"/>
      <point x="46" y="7"/>
    </contour>
    <contour>
      <point x="247" y="7" type="curve" smooth="yes"/>
      <point x="235" y="7"/>
      <point x="263" y="74"/>
      <point x="306" y="160" type="curve" smooth="yes"/>
      <point x="328" y="209"/>
      <point x="364" y="271"/>
      <point x="410" y="338" type="curve"/>
      <point x="342" y="194" type="line" smooth="yes"/>
      <point x="264" y="31"/>
      <point x="253" y="7"/>
    </contour>
  </outline>
</glyph>
<glyph name="q" format="2">
  <advance width="444"/>
  <unicode hex="0071"/>
  <outline>
    <contour>
      <point x="259" y="556" type="curve" smooth="yes"/>
      <point x="307" y="556"/>
      <point x="320" y="523"/>
      <point x="314" y="485" type="curve" smooth="yes"/>
      <point x="309" y="449"/>
      <point x="289" y="408"/>
      <point x="262" y="382" type="curve"/>
      <point x="263" y="375" type="line"/>
      <point x="296" y="405"/>
      <point x="321" y="449"/>
      <point x="326" y="485" type="curve" smooth="yes"/>
      <point x="331" y="527"/>
      <point x="310" y="565"/>
      <point x="259" y="565" type="curve" smooth="yes"/>
      <point x="180" y="565"/>
      <point x="63" y="439"/>
      <point x="-5" y="281" type="curve" smooth="yes"/>
      <point x="-46" y="185"/>
      <point x="-84" y="-14"/>
      <point x="16" y="-14" type="curve" smooth="yes"/>
      <point x="55" y="-14"/>
      <point x="119" y="35"/>
      <point x="168" y="98" type="curve"/>
      <point x="126" y="8"/>
      <point x="88" y="-70"/>
      <point x="46" y="-159" type="curve"/>
      <point x="24" y="-166"/>
      <point x="1" y="-170"/>
      <point x="-20" y="-170" type="curve"/>
      <point x="-18" y="-178" type="line"/>
      <point x="2" y="-178"/>
      <point x="22" y="-176"/>
      <point x="41" y="-171" type="curve"/>
      <point x="-65" y="-398" type="line"/>
      <point x="-42" y="-398" type="line"/>
      <point x="68" y="-162" type="line"/>
      <point x="212" y="-105"/>
      <point x="359" y="82"/>
      <point x="450" y="282" type="curve"/>
      <point x="442" y="284" type="line"/>
      <point x="357" y="99"/>
      <point x="214" y="-86"/>
      <point x="74" y="-148" type="curve"/>
      <point x="405" y="558" type="line"/>
      <point x="383" y="558" type="line"/>
      <point x="203" y="174" type="line"/>
      <point x="145" y="66"/>
      <point x="66" y="-4"/>
      <point x="18" y="-4" type="curve" smooth="yes"/>
      <point x="-15" y="-4"/>
      <point x="-30" y="27"/>
      <point x="-30" y="79" type="curve" smooth="yes"/>
      <point x="-30" y="91"/>
      <point x="-29" y="108"/>
      <point x="-27" y="123" type="curve" smooth="yes"/>
      <point x="-20" y="171"/>
      <point x="-8" y="222"/>
      <point x="14" y="274" type="curve" smooth="yes"/>
      <point x="78" y="425"/>
      <point x="193" y="556"/>
    </contour>
  </outline>
</glyph>
<glyph name="exclamdown" format="2">
  <advance width="461"/>
  <unicode hex="00A1"/>
  <outline>
    <contour>
      <point x="274" y="327" type="line"/>
      <point x="-45" y="-455" type="line"/>
      <point x="-19" y="-455" type="line"/>
      <point x="281" y="324" type="line"/>
    </contour>
    <contour>
      <point x="340" y="418" type="curve"/>
      <point x="343" y="430"/>
      <point x="338" y="444"/>
      <point x="322" y="444" type="curve" smooth="yes"/>
      <point x="308" y="444"/>
      <point x="293" y="435"/>
      <point x="289" y="420" type="curve"/>
      <point x="283" y="404"/>
      <point x="292" y="393"/>
      <point x="306" y="393" type="curve" smooth="yes"/>
      <point x="321" y="393"/>
      <point x="335" y="404"/>
    </contour>
  </outline>
</glyph>
<glyph name="sterling" format="2">
  <advance width="642"/>
  <unicode hex="00A3"/>
  <outline>
    <contour>
      <point x="131" y="271" type="line"/>
      <point x="283" y="271" type="line"/>
      <point x="236" y="182"/>
      <point x="157" y="85"/>
      <point x="56" y="51" type="curve"/>
      <point x="34" y="57"/>
      <point x="8" y="63"/>
      <point x="-23" y="63" type="curve" smooth="yes"/>
      <point x="-46" y="63"/>
      <point x="-57" y="56"/>
      <point x="-57" y="49" type="curve" smooth="yes"/>
      <point x="-57" y="41"/>
      <point x="-42" y="33"/>
      <point x="-15" y="33" type="curve" smooth="yes"/>
      <point x="9" y="33"/>
      <point x="33" y="35"/>
      <point x="53" y="40" type="curve"/>
      <point x="102" y="22"/>
      <point x="156" y="-9"/>
      <point x="200" y="-37" type="curve" smooth="yes"/>
      <point x="276" y="-85"/>
      <point x="376" y="-144"/>
      <point x="475" y="-144" type="curve" smooth="yes"/>
      <point x="602" y="-144"/>
      <point x="673" y="-61"/>
      <point x="657" y="-1" type="curve"/>
      <point x="649" y="-2" type="line"/>
      <point x="664" y="-59"/>
      <point x="579" y="-129"/>
      <point x="459" y="-129" type="curve" smooth="yes"/>
      <point x="360" y="-129"/>
      <point x="281" y="-78"/>
      <point x="204" y="-29" type="curve" smooth="yes"/>
      <point x="192" y="-22"/>
      <point x="181" y="-14"/>
      <point x="170" y="-7" type="curve" smooth="yes"/>
      <point x="139" y="13"/>
      <point x="112" y="32"/>
      <point x="77" y="45" type="curve"/>
      <point x="186" y="77"/>
      <point x="252" y="169"/>
      <point x="307" y="271" type="curve"/>
      <point x="463" y="271" type="line"/>
      <point x="463" y="280" type="line"/>
      <point x="312" y="280" type="line"/>
      <point x="336" y="327" type="line" smooth="yes"/>
      <point x="401" y="460"/>
      <point x="505" y="671"/>
      <point x="637" y="671" type="curve" smooth="yes"/>
      <point x="689" y="671"/>
      <point x="717" y="631"/>
      <point x="717" y="601" type="curve" smooth="yes"/>
      <point x="717" y="566"/>
      <point x="692" y="516"/>
      <point x="643" y="516" type="curve" smooth="yes"/>
      <point x="635" y="516"/>
      <point x="626" y="517"/>
      <point x="617" y="524" type="curve"/>
      <point x="616" y="514" type="line"/>
      <point x="626" y="510"/>
      <point x="636" y="508"/>
      <point x="647" y="508" type="curve" smooth="yes"/>
      <point x="696" y="508"/>
      <point x="733" y="561"/>
      <point x="733" y="599" type="curve" smooth="yes"/>
      <point x="733" y="634"/>
      <point x="699" y="678"/>
      <point x="644" y="678" type="curve" smooth="yes"/>
      <point x="488" y="678"/>
      <point x="370" y="445"/>
      <point x="305" y="314" type="curve" smooth="yes"/>
      <point x="288" y="280" type="line"/>
      <point x="131" y="280" type="line"/>
    </contour>
    <contour>
      <point x="-15" y="40" type="curve" smooth="yes"/>
      <point x="-42" y="40"/>
      <point x="-38" y="53"/>
      <point x="-15" y="53" type="curve" smooth="yes"/>
      <point x="0" y="53"/>
      <point x="18" y="50"/>
      <point x="35" y="45" type="curve"/>
      <point x="18" y="41"/>
      <point x="2" y="40"/>
    </contour>
  </outline>
</glyph>
<glyph name="dieresis" format="2">
  <advance width="320"/>
  <unicode hex="00A8"/>
  <outline>
    <contour>
      <point x="195" y="735" type="line"/>
      <point x="193" y="725"/>
      <point x="198" y="715"/>
      <point x="210" y="715" type="curve" smooth="yes"/>
      <point x="221" y="715"/>
      <point x="233" y="722"/>
      <point x="236" y="734" type="curve"/>
      <point x="241" y="747"/>
      <point x="234" y="756"/>
      <point x="222" y="756" type="curve" smooth="yes"/>
      <point x="210" y="756"/>
      <point x="199" y="748"/>
      <point x="195" y="736" type="curve"/>
    </contour>
    <contour>
      <point x="300" y="735" type="line"/>
      <point x="298" y="725"/>
      <point x="303" y="715"/>
      <point x="315" y="715" type="curve" smooth="yes"/>
      <point x="326" y="715"/>
      <point x="338" y="722"/>
      <point x="341" y="734" type="curve"/>
      <point x="346" y="747"/>
      <point x="339" y="756"/>
      <point x="327" y="756" type="curve" smooth="yes"/>
      <point x="315" y="756"/>
      <point x="304" y="748"/>
      <point x="300" y="736" type="curve"/>
    </contour>
  </outline>
</glyph>
<glyph name="guillemotleft" format="2">
  <advance width="545"/>
  <unicode hex="00AB"/>
  <outline>
    <contour>
      <point x="322" y="119" type="line"/>
      <point x="266" y="169"/>
      <point x="207" y="224"/>
      <point x="151" y="274" type="curve"/>
      <point x="322" y="429" type="line"/>
      <point x="320" y="438" type="line"/>
      <point x="124" y="274" type="line"/>
      <point x="320" y="110" type="line"/>
    </contour>
    <contour>
      <point x="419" y="119" type="line"/>
      <point x="363" y="169"/>
      <point x="304" y="224"/>
      <point x="248" y="274" type="curve"/>
      <point x="419" y="429" type="line"/>
      <point x="417" y="438" type="line"/>
      <point x="221" y="274" type="line"/>
      <point x="417" y="110" type="line"/>
    </contour>
  </outline>
</glyph>
<glyph name="onesuperior" format="2">
  <advance width="302"/>
  <unicode hex="00B9"/>
  <outline>
    <contour>
      <point x="68" y="415" type="line"/>
      <point x="70" y="417" type="line"/>
      <point x="66" y="431"/>
      <point x="64" y="444"/>
      <point x="64" y="456" type="curve" smooth="yes"/>
      <point x="66" y="522"/>
      <point x="134" y="575"/>
      <point x="196" y="614" type="curve"/>
      <point x="144" y="538"/>
      <point x="80" y="413"/>
      <point x="35" y="298" type="curve"/>
      <point x="53" y="298" type="line"/>
      <point x="99" y="418"/>
      <point x="164" y="550"/>
      <point x="213" y="623" type="curve"/>
      <point x="232" y="635" type="line" smooth="yes"/>
      <point x="247" y="645"/>
      <point x="267" y="658"/>
      <point x="279" y="669" type="curve"/>
      <point x="279" y="668" type="line"/>
      <point x="293" y="680"/>
      <point x="288" y="692"/>
      <point x="276" y="692" type="curve" smooth="yes"/>
      <point x="260" y="692"/>
      <point x="234" y="665"/>
      <point x="206" y="628" type="curve"/>
      <point x="146" y="590"/>
      <point x="60" y="533"/>
      <point x="58" y="462" type="curve" smooth="yes"/>
      <point x="57" y="447"/>
      <point x="60" y="431"/>
      <point x="65" y="417" type="curve"/>
    </contour>
    <contour>
      <point x="270" y="680" type="curve" smooth="yes"/>
      <point x="276" y="680"/>
      <point x="277" y="674"/>
      <point x="270" y="669" type="curve"/>
      <point x="263" y="663"/>
      <point x="248" y="653"/>
      <point x="229" y="642" type="curve" smooth="yes"/>
      <point x="222" y="638" type="line"/>
      <point x="243" y="665"/>
      <point x="259" y="680"/>
    </contour>
  </outline>
</glyph>
<glyph name="onequarter" format="2">
  <advance width="840"/>
  <unicode hex="00BC"/>
  <outline>
    <contour>
      <point x="579" y="538" type="line"/>
      <point x="609" y="530"/>
      <point x="618" y="485"/>
      <point x="619" y="458" type="curve"/>
      <point x="605" y="317"/>
      <point x="460" y="121"/>
      <point x="365" y="38" type="curve"/>
      <point x="348" y="37"/>
      <point x="338" y="25"/>
      <point x="338" y="16" type="curve" smooth="yes"/>
      <point x="338" y="13"/>
      <point x="339" y="10"/>
      <point x="339" y="9" type="curve"/>
      <point x="353" y="8" type="line"/>
      <point x="353" y="14"/>
      <point x="357" y="20"/>
      <point x="363" y="26" type="curve"/>
      <point x="366" y="27"/>
      <point x="370" y="28"/>
      <point x="374" y="28" type="curve" smooth="yes"/>
      <point x="404" y="28"/>
      <point x="428" y="20"/>
      <point x="453" y="12" type="curve" smooth="yes"/>
      <point x="473" y="5"/>
      <point x="500" y="-4"/>
      <point x="531" y="-7" type="curve"/>
      <point x="517" y="-40"/>
      <point x="504" y="-72"/>
      <point x="493" y="-102" type="curve"/>
      <point x="513" y="-102" type="line"/>
      <point x="525" y="-71"/>
      <point x="536" y="-38"/>
      <point x="548" y="-7" type="curve"/>
      <point x="550" y="-7"/>
      <point x="552" y="-8"/>
      <point x="554" y="-8" type="curve" smooth="yes"/>
      <point x="561" y="-8" type="line" smooth="yes"/>
      <point x="591" y="-8"/>
      <point x="627" y="1"/>
      <point x="650" y="15" type="curve"/>
      <point x="671" y="30"/>
      <point x="684" y="57"/>
      <point x="682" y="87" type="curve"/>
      <point x="678" y="87" type="line"/>
      <point x="678" y="63"/>
      <point x="662" y="40"/>
      <point x="642" y="26" type="curve" smooth="yes"/>
      <point x="619" y="10"/>
      <point x="589" y="0"/>
      <point x="561" y="0" type="curve" smooth="yes"/>
      <point x="552" y="0" type="line"/>
      <point x="618" y="164"/>
      <point x="699" y="345"/>
      <point x="747" y="396" type="curve"/>
      <point x="745" y="398" type="line"/>
      <point x="688" y="345"/>
      <point x="597" y="155"/>
      <point x="533" y="1" type="curve"/>
      <point x="502" y="4"/>
      <point x="479" y="12"/>
      <point x="455" y="20" type="curve" smooth="yes"/>
      <point x="431" y="29"/>
      <point x="408" y="36"/>
      <point x="377" y="38" type="curve"/>
      <point x="476" y="127"/>
      <point x="624" y="316"/>
      <point x="627" y="459" type="curve" smooth="yes"/>
      <point x="628" y="487"/>
      <point x="615" y="537"/>
      <point x="581" y="545" type="curve"/>
    </contour>
    <contour>
      <point x="200" y="415" type="line"/>
      <point x="202" y="417" type="line"/>
      <point x="198" y="431"/>
      <point x="196" y="444"/>
      <point x="196" y="456" type="curve" smooth="yes"/>
      <point x="198" y="522"/>
      <point x="266" y="575"/>
      <point x="328" y="614" type="curve"/>
      <point x="276" y="538"/>
      <point x="212" y="413"/>
      <point x="167" y="298" type="curve"/>
      <point x="185" y="298" type="line"/>
      <point x="231" y="418"/>
      <point x="296" y="550"/>
      <point x="345" y="623" type="curve"/>
      <point x="364" y="635" type="line" smooth="yes"/>
      <point x="379" y="645"/>
      <point x="399" y="658"/>
      <point x="411" y="669" type="curve"/>
      <point x="411" y="668" type="line"/>
      <point x="425" y="680"/>
      <point x="420" y="692"/>
      <point x="408" y="692" type="curve" smooth="yes"/>
      <point x="392" y="692"/>
      <point x="366" y="665"/>
      <point x="338" y="628" type="curve"/>
      <point x="278" y="590"/>
      <point x="192" y="533"/>
      <point x="190" y="462" type="curve" smooth="yes"/>
      <point x="189" y="447"/>
      <point x="192" y="431"/>
      <point x="197" y="417" type="curve"/>
    </contour>
    <contour>
      <point x="402" y="680" type="curve" smooth="yes"/>
      <point x="408" y="680"/>
      <point x="409" y="674"/>
      <point x="402" y="669" type="curve"/>
      <point x="395" y="663"/>
      <point x="380" y="653"/>
      <point x="361" y="642" type="curve" smooth="yes"/>
      <point x="354" y="638" type="line"/>
      <point x="375" y="665"/>
      <point x="391" y="680"/>
    </contour>
    <contour>
      <point x="138" y="-126" type="line"/>
      <point x="598" y="775" type="line"/>
      <point x="589" y="777" type="line"/>
      <point x="129" y="-123" type="line"/>
    </contour>
  </outline>
</glyph>
<glyph name="threequarters" format="2">
  <advance width="997"/>
  <unicode hex="00BE"/>
  <outline>
    <contour>
      <point x="360" y="436" type="curve" smooth="yes"/>
      <point x="366" y="437"/>
      <point x="372" y="438"/>
      <point x="376" y="440" type="curve"/>
      <point x="403" y="422"/>
      <point x="421" y="388"/>
      <point x="421" y="348" type="curve" smooth="yes"/>
      <point x="421" y="229"/>
      <point x="290" y="75"/>
      <point x="126" y="75" type="curve" smooth="yes"/>
      <point x="98" y="75"/>
      <point x="32" y="90"/>
      <point x="36" y="136" type="curve"/>
      <point x="36" y="140"/>
      <point x="37" y="144"/>
      <point x="42" y="150" type="curve"/>
      <point x="39" y="153" type="line"/>
      <point x="28" y="144"/>
      <point x="24" y="138"/>
      <point x="23" y="127" type="curve" smooth="yes"/>
      <point x="20" y="80"/>
      <point x="95" y="66"/>
      <point x="126" y="66" type="curve" smooth="yes"/>
      <point x="274" y="66"/>
      <point x="440" y="199"/>
      <point x="440" y="338" type="curve" smooth="yes"/>
      <point x="440" y="384"/>
      <point x="420" y="422"/>
      <point x="386" y="445" type="curve"/>
      <point x="457" y="476"/>
      <point x="512" y="547"/>
      <point x="516" y="601" type="curve" smooth="yes"/>
      <point x="520" y="658"/>
      <point x="478" y="686"/>
      <point x="426" y="686" type="curve" smooth="yes"/>
      <point x="360" y="686"/>
      <point x="276" y="626"/>
      <point x="271" y="559" type="curve" smooth="yes"/>
      <point x="270" y="544"/>
      <point x="277" y="518"/>
      <point x="298" y="517" type="curve"/>
      <point x="299" y="521" type="line"/>
      <point x="285" y="525"/>
      <point x="283" y="543"/>
      <point x="285" y="556" type="curve"/>
      <point x="290" y="619"/>
      <point x="364" y="679"/>
      <point x="426" y="679" type="curve" smooth="yes"/>
      <point x="469" y="679"/>
      <point x="502" y="657"/>
      <point x="498" y="606" type="curve" smooth="yes"/>
      <point x="493" y="555"/>
      <point x="443" y="480"/>
      <point x="375" y="451" type="curve"/>
      <point x="360" y="458"/>
      <point x="338" y="466"/>
      <point x="320" y="466" type="curve" smooth="yes"/>
      <point x="299" y="466"/>
      <point x="284" y="457"/>
      <point x="284" y="449" type="curve"/>
      <point x="283" y="440"/>
      <point x="300" y="432"/>
      <point x="326" y="432" type="curve" smooth="yes"/>
      <point x="337" y="432"/>
      <point x="345" y="433"/>
    </contour>
    <contour>
      <point x="743" y="538" type="line"/>
      <point x="773" y="530"/>
      <point x="782" y="485"/>
      <point x="783" y="458" type="curve"/>
      <point x="769" y="317"/>
      <point x="624" y="121"/>
      <point x="529" y="38" type="curve"/>
      <point x="512" y="37"/>
      <point x="502" y="25"/>
      <point x="502" y="16" type="curve" smooth="yes"/>
      <point x="502" y="13"/>
      <point x="503" y="10"/>
      <point x="503" y="9" type="curve"/>
      <point x="517" y="8" type="line"/>
      <point x="518" y="15"/>
      <point x="521" y="20"/>
      <point x="527" y="26" type="curve"/>
      <point x="530" y="27"/>
      <point x="534" y="28"/>
      <point x="538" y="28" type="curve" smooth="yes"/>
      <point x="568" y="28"/>
      <point x="592" y="20"/>
      <point x="617" y="12" type="curve" smooth="yes"/>
      <point x="637" y="5"/>
      <point x="664" y="-4"/>
      <point x="695" y="-7" type="curve"/>
      <point x="681" y="-40"/>
      <point x="668" y="-72"/>
      <point x="657" y="-102" type="curve"/>
      <point x="677" y="-102" type="line"/>
      <point x="689" y="-71"/>
      <point x="700" y="-38"/>
      <point x="712" y="-7" type="curve"/>
      <point x="714" y="-7"/>
      <point x="716" y="-8"/>
      <point x="718" y="-8" type="curve" smooth="yes"/>
      <point x="725" y="-8" type="line" smooth="yes"/>
      <point x="755" y="-8"/>
      <point x="791" y="1"/>
      <point x="814" y="15" type="curve"/>
      <point x="835" y="30"/>
      <point x="848" y="57"/>
      <point x="846" y="87" type="curve"/>
      <point x="842" y="87" type="line"/>
      <point x="842" y="63"/>
      <point x="826" y="40"/>
      <point x="806" y="26" type="curve" smooth="yes"/>
      <point x="783" y="10"/>
      <point x="753" y="0"/>
      <point x="725" y="0" type="curve" smooth="yes"/>
      <point x="716" y="0" type="line"/>
      <point x="782" y="164"/>
      <point x="863" y="345"/>
      <point x="911" y="396" type="curve"/>
      <point x="909" y="398" type="line"/>
      <point x="852" y="345"/>
      <point x="761" y="155"/>
      <point x="697" y="1" type="curve"/>
      <point x="666" y="4"/>
      <point x="643" y="12"/>
      <point x="619" y="20" type="curve" smooth="yes"/>
      <point x="595" y="29"/>
      <point x="572" y="36"/>
      <point x="541" y="38" type="curve"/>
      <point x="640" y="127"/>
      <point x="788" y="316"/>
      <point x="791" y="459" type="curve" smooth="yes"/>
      <point x="792" y="487"/>
      <point x="779" y="537"/>
      <point x="745" y="545" type="curve"/>
    </contour>
    <contour>
      <point x="323" y="457" type="curve" smooth="yes"/>
      <point x="338" y="457"/>
      <point x="350" y="453"/>
      <point x="363" y="447" type="curve"/>
      <point x="360" y="446"/>
      <point x="355" y="444"/>
      <point x="354" y="444" type="curve"/>
      <point x="340" y="441"/>
      <point x="332" y="441"/>
      <point x="326" y="441" type="curve" smooth="yes"/>
      <point x="308" y="441"/>
      <point x="300" y="445"/>
      <point x="300" y="450" type="curve" smooth="yes"/>
      <point x="300" y="453"/>
      <point x="310" y="457"/>
    </contour>
    <contour>
      <point x="331" y="-126" type="line"/>
      <point x="791" y="775" type="line"/>
      <point x="782" y="777" type="line"/>
      <point x="322" y="-123" type="line"/>
    </contour>
  </outline>
</glyph>
<glyph name="adieresis" format="2">
  <advance width="446"/>
  <unicode hex="00E4"/>
  <outline>
    <contour>
      <point x="261" y="556" type="curve" smooth="yes"/>
      <point x="309" y="556"/>
      <point x="322" y="523"/>
      <point x="316" y="485" type="curve" smooth="yes"/>
      <point x="311" y="449"/>
      <point x="291" y="408"/>
      <point x="264" y="382" type="curve"/>
      <point x="265" y="375" type="line"/>
      <point x="298" y="405"/>
      <point x="323" y="449"/>
      <point x="328" y="485" type="curve" smooth="yes"/>
      <point x="333" y="527"/>
      <point x="312" y="565"/>
      <point x="261" y="565" type="curve" smooth="yes"/>
      <point x="182" y="565"/>
      <point x="64" y="440"/>
      <point x="-3" y="281" type="curve" smooth="yes"/>
      <point x="-42" y="188"/>
      <point x="-92" y="-14"/>
      <point x="18" y="-14" type="curve" smooth="yes"/>
      <point x="62" y="-14"/>
      <point x="134" y="40"/>
      <point x="185" y="120" type="curve"/>
      <point x="181" y="103"/>
      <point x="179" y="85"/>
      <point x="179" y="69" type="curve" smooth="yes"/>
      <point x="179" y="26"/>
      <point x="197" y="-2"/>
      <point x="224" y="-2" type="curve" smooth="yes"/>
      <point x="294" y="-2"/>
      <point x="390" y="146"/>
      <point x="452" y="282" type="curve"/>
      <point x="444" y="284" type="line"/>
      <point x="385" y="156"/>
      <point x="290" y="6"/>
      <point x="224" y="6" type="curve" smooth="yes"/>
      <point x="203" y="6"/>
      <point x="191" y="27"/>
      <point x="191" y="60" type="curve" smooth="yes"/>
      <point x="191" y="83"/>
      <point x="199" y="119"/>
      <point x="214" y="151" type="curve" smooth="yes"/>
      <point x="406" y="552" type="line"/>
      <point x="380" y="552" type="line"/>
      <point x="213" y="188" type="line" smooth="yes"/>
      <point x="159" y="71"/>
      <point x="70" y="-4"/>
      <point x="20" y="-4" type="curve" smooth="yes"/>
      <point x="-13" y="-4"/>
      <point x="-28" y="27"/>
      <point x="-28" y="79" type="curve" smooth="yes"/>
      <point x="-28" y="91"/>
      <point x="-27" y="108"/>
      <point x="-25" y="123" type="curve" smooth="yes"/>
      <point x="-18" y="171"/>
      <point x="-6" y="222"/>
      <point x="16" y="274" type="curve" smooth="yes"/>
      <point x="80" y="425"/>
      <point x="195" y="556"/>
    </contour>
    <contour>
      <point x="297" y="735" type="line"/>
      <point x="295" y="725"/>
      <point x="300" y="715"/>
      <point x="312" y="715" type="curve" smooth="yes"/>
      <point x="323" y="715"/>
      <point x="335" y="722"/>
      <point x="338" y="734" type="curve"/>
      <point x="343" y="747"/>
      <point x="336" y="756"/>
      <point x="324" y="756" type="curve" smooth="yes"/>
      <point x="312" y="756"/>
      <point x="301" y="748"/>
      <point x="297" y="736" type="curve"/>
    </contour>
    <contour>
      <point x="402" y="735" type="line"/>
      <point x="400" y="725"/>
      <point x="405" y="715"/>
      <point x="417" y="715" type="curve" smooth="yes"/>
      <point x="428" y="715"/>
      <point x="440" y="722"/>
      <point x="443" y="734" type="curve"/>
      <point x="448" y="747"/>
      <point x="441" y="756"/>
      <point x="429" y="756" type="curve" smooth="yes"/>
      <point x="417" y="756"/>
      <point x="406" y="748"/>
      <point x="402" y="736" type="curve"/>
    </contour>
  </outline>
</glyph>
<glyph name="aring" format="2">
  <advance width="446"/>
  <unicode hex="00E5"/>
  <outline>
    <contour>
      <point x="319" y="719" type="curve" smooth="yes"/>
      <point x="319" y="697"/>
      <point x="341" y="681"/>
      <point x="373" y="681" type="curve" smooth="yes"/>
      <point x="414" y="681"/>
      <point x="457" y="711"/>
      <point x="457" y="749" type="curve" smooth="yes"/>
      <point x="457" y="771"/>
      <point x="437" y="788"/>
      <point x="404" y="788" type="curve" smooth="yes"/>
      <point x="364" y="788"/>
      <point x="319" y="757"/>
    </contour>
    <contour>
      <point x="404" y="780" type="curve" smooth="yes"/>
      <point x="424" y="780"/>
      <point x="436" y="767"/>
      <point x="436" y="749" type="curve" smooth="yes"/>
      <point x="436" y="717"/>
      <point x="402" y="689"/>
      <point x="373" y="689" type="curve" smooth="yes"/>
      <point x="353" y="689"/>
      <point x="340" y="701"/>
      <point x="340" y="718" type="curve" smooth="yes"/>
      <point x="340" y="751"/>
      <point x="375" y="780"/>
    </contour>
    <contour>
      <point x="261" y="556" type="curve" smooth="yes"/>
      <point x="309" y="556"/>
      <point x="322" y="523"/>
      <point x="316" y="485" type="curve" smooth="yes"/>
      <point x="311" y="449"/>
      <point x="291" y="408"/>
      <point x="264" y="382" type="curve"/>
      <point x="265" y="375" type="line"/>
      <point x="298" y="405"/>
      <point x="323" y="449"/>
      <point x="328" y="485" type="curve" smooth="yes"/>
      <point x="333" y="527"/>
      <point x="312" y="565"/>
      <point x="261" y="565" type="curve" smooth="yes"/>
      <point x="182" y="565"/>
      <point x="64" y="440"/>
      <point x="-3" y="281" type="curve" smooth="yes"/>
      <point x="-42" y="188"/>
      <point x="-92" y="-14"/>
      <point x="18" y="-14" type="curve" smooth="yes"/>
      <point x="62" y="-14"/>
      <point x="134" y="40"/>
      <point x="185" y="120" type="curve"/>
      <point x="181" y="103"/>
      <point x="179" y="85"/>
      <point x="179" y="69" type="curve" smooth="yes"/>
      <point x="179" y="26"/>
      <point x="197" y="-2"/>
      <point x="224" y="-2" type="curve" smooth="yes"/>
      <point x="294" y="-2"/>
      <point x="390" y="146"/>
      <point x="452" y="282" type="curve"/>
      <point x="444" y="284" type="line"/>
      <point x="385" y="156"/>
      <point x="290" y="6"/>
      <point x="224" y="6" type="curve" smooth="yes"/>
      <point x="203" y="6"/>
      <point x="191" y="27"/>
      <point x="191" y="60" type="curve" smooth="yes"/>
      <point x="191" y="83"/>
      <point x="199" y="119"/>
      <point x="214" y="151" type="curve" smooth="yes"/>
      <point x="406" y="552" type="line"/>
      <point x="380" y="552" type="line"/>
      <point x="213" y="188" type="line" smooth="yes"/>
      <point x="159" y="71"/>
      <point x="70" y="-4"/>
      <point x="20" y="-4" type="curve" smooth="yes"/>
      <point x="-13" y="-4"/>
      <point x="-28" y="27"/>
      <point x="-28" y="79" type="curve" smooth="yes"/>
      <point x="-28" y="91"/>
      <point x="-27" y="108"/>
      <point x="-25" y="123" type="curve" smooth="yes"/>
      <point x="-18" y="171"/>
      <point x="-6" y="222"/>
      <point x="16" y="274" type="curve" smooth="yes"/>
      <point x="80" y="425"/>
      <point x="195" y="556"/>
    </contour>
  </outline>
</glyph>
<glyph name="ccedilla" format="2">
  <advance width="346"/>
  <unicode hex="00E7"/>
  <outline>
    <contour>
      <point x="180" y="440" type="line"/>
      <point x="163" y="419"/>
      <point x="156" y="397"/>
      <point x="156" y="379" type="curve" smooth="yes"/>
      <point x="156" y="352"/>
      <point x="172" y="334"/>
      <point x="194" y="333" type="curve" smooth="yes"/>
      <point x="263" y="330"/>
      <point x="329" y="438"/>
      <point x="329" y="496" type="curve" smooth="yes"/>
      <point x="329" y="531"/>
      <point x="307" y="565"/>
      <point x="268" y="565" type="curve" smooth="yes"/>
      <point x="177" y="565"/>
      <point x="5" y="380"/>
      <point x="-31" y="175" type="curve" smooth="yes"/>
      <point x="-34" y="156"/>
      <point x="-36" y="134"/>
      <point x="-36" y="117" type="curve" smooth="yes"/>
      <point x="-36" y="47"/>
      <point x="-10" y="1"/>
      <point x="32" y="-10" type="curve"/>
      <point x="27" y="-28"/>
      <point x="33" y="-42"/>
      <point x="39" y="-55" type="curve"/>
      <point x="42" y="-63"/>
      <point x="47" y="-76"/>
      <point x="47" y="-84" type="curve" smooth="yes"/>
      <point x="47" y="-116"/>
      <point x="19" y="-163"/>
      <point x="-47" y="-175" type="curve"/>
      <point x="-47" y="-179" type="line"/>
      <point x="21" y="-169"/>
      <point x="65" y="-132"/>
      <point x="65" y="-97" type="curve" smooth="yes"/>
      <point x="65" y="-84"/>
      <point x="59" y="-73"/>
      <point x="53" y="-61" type="curve" smooth="yes"/>
      <point x="44" y="-45"/>
      <point x="35" y="-29"/>
      <point x="41" y="-12" type="curve"/>
      <point x="46" y="-13"/>
      <point x="52" y="-14"/>
      <point x="57" y="-14" type="curve" smooth="yes"/>
      <point x="173" y="-14"/>
      <point x="284" y="140"/>
      <point x="352" y="282" type="curve"/>
      <point x="344" y="284" type="line"/>
      <point x="279" y="147"/>
      <point x="169" y="-4"/>
      <point x="57" y="-4" type="curve" smooth="yes"/>
      <point x="12" y="-4"/>
      <point x="-18" y="37"/>
      <point x="-18" y="111" type="curve" smooth="yes"/>
      <point x="-18" y="128"/>
      <point x="-16" y="147"/>
      <point x="-13" y="167" type="curve" smooth="yes"/>
      <point x="21" y="363"/>
      <point x="181" y="556"/>
      <point x="267" y="556" type="curve" smooth="yes"/>
      <point x="298" y="556"/>
      <point x="312" y="530"/>
      <point x="312" y="501" type="curve" smooth="yes"/>
      <point x="312" y="447"/>
      <point x="250" y="337"/>
      <point x="194" y="341" type="curve" smooth="yes"/>
      <point x="180" y="342"/>
      <point x="170" y="359"/>
      <point x="170" y="382" type="curve" smooth="yes"/>
      <point x="170" y="397"/>
      <point x="175" y="417"/>
      <point x="189" y="437" type="curve"/>
    </contour>
  </outline>
</glyph>
<glyph name="eth" format="2">
  <advance width="338"/>
  <unicode hex="00F0"/>
  <outline>
    <contour>
      <point x="266" y="564" type="line"/>
      <point x="263" y="565"/>
      <point x="259" y="565"/>
      <point x="254" y="565" type="curve" smooth="yes"/>
      <point x="174" y="565"/>
      <point x="64" y="441"/>
      <point x="-2" y="283" type="curve" smooth="yes"/>
      <point x="-25" y="225"/>
      <point x="-36" y="174"/>
      <point x="-39" y="116" type="curve" smooth="yes"/>
      <point x="-43" y="40"/>
      <point x="-17" y="-12"/>
      <point x="31" y="-14" type="curve" smooth="yes"/>
      <point x="110" y="-14"/>
      <point x="219" y="114"/>
      <point x="287" y="268" type="curve" smooth="yes"/>
      <point x="316" y="338"/>
      <point x="333" y="421"/>
      <point x="333" y="492" type="curve" smooth="yes"/>
      <point x="333" y="562"/>
      <point x="319" y="624"/>
      <point x="294" y="667" type="curve"/>
      <point x="365" y="706" type="line"/>
      <point x="363" y="715" type="line"/>
      <point x="289" y="675" type="line"/>
      <point x="272" y="700"/>
      <point x="248" y="719"/>
      <point x="222" y="726" type="curve"/>
      <point x="216" y="719" type="line"/>
      <point x="244" y="710"/>
      <point x="264" y="693"/>
      <point x="279" y="669" type="curve"/>
      <point x="199" y="626" type="line"/>
      <point x="201" y="617" type="line"/>
      <point x="228" y="631"/>
      <point x="256" y="648"/>
      <point x="283" y="662" type="curve"/>
      <point x="305" y="623"/>
      <point x="315" y="570"/>
      <point x="315" y="513" type="curve" smooth="yes"/>
      <point x="315" y="439"/>
      <point x="295" y="347"/>
      <point x="267" y="277" type="curve" smooth="yes"/>
      <point x="202" y="129"/>
      <point x="98" y="-5"/>
      <point x="31" y="-5" type="curve"/>
      <point x="-7" y="-2"/>
      <point x="-25" y="42"/>
      <point x="-21" y="107" type="curve" smooth="yes"/>
      <point x="-18" y="162"/>
      <point x="-6" y="216"/>
      <point x="18" y="274" type="curve" smooth="yes"/>
      <point x="79" y="429"/>
      <point x="187" y="556"/>
      <point x="256" y="556" type="curve" smooth="yes"/>
      <point x="259" y="556"/>
      <point x="262" y="556"/>
      <point x="268" y="554" type="curve"/>
    </contour>
  </outline>
</glyph>
<glyph name="oslash" format="2">
  <advance width="396"/>
  <unicode hex="00F8"/>
  <outline>
    <contour>
      <point x="-35" y="-79" type="line"/>
      <point x="2" y="-5" type="line"/>
      <point x="10" y="-10"/>
      <point x="19" y="-13"/>
      <point x="31" y="-14" type="curve"/>
      <point x="86" y="-14"/>
      <point x="157" y="47"/>
      <point x="216" y="136" type="curve"/>
      <point x="221" y="135"/>
      <point x="227" y="135"/>
      <point x="232" y="135" type="curve" smooth="yes"/>
      <point x="287" y="135"/>
      <point x="361" y="197"/>
      <point x="402" y="282" type="curve"/>
      <point x="394" y="284" type="line"/>
      <point x="355" y="203"/>
      <point x="283" y="143"/>
      <point x="233" y="143" type="curve" smooth="yes"/>
      <point x="229" y="143"/>
      <point x="225" y="142"/>
      <point x="221" y="143" type="curve"/>
      <point x="246" y="181"/>
      <point x="268" y="222"/>
      <point x="287" y="268" type="curve" smooth="yes"/>
      <point x="310" y="326"/>
      <point x="321" y="377"/>
      <point x="324" y="435" type="curve" smooth="yes"/>
      <point x="327" y="491"/>
      <point x="315" y="536"/>
      <point x="288" y="555" type="curve"/>
      <point x="322" y="620" type="line"/>
      <point x="311" y="620" type="line"/>
      <point x="280" y="559" type="line"/>
      <point x="272" y="563"/>
      <point x="264" y="565"/>
      <point x="254" y="565" type="curve" smooth="yes"/>
      <point x="174" y="565"/>
      <point x="64" y="441"/>
      <point x="-2" y="283" type="curve" smooth="yes"/>
      <point x="-25" y="225"/>
      <point x="-36" y="174"/>
      <point x="-39" y="116" type="curve" smooth="yes"/>
      <point x="-42" y="65"/>
      <point x="-27" y="20"/>
      <point x="-5" y="-1" type="curve"/>
      <point x="-45" y="-79" type="line"/>
    </contour>
    <contour>
      <point x="175" y="154" type="line"/>
      <point x="183" y="147"/>
      <point x="190" y="143"/>
      <point x="198" y="140" type="curve"/>
      <point x="142" y="54"/>
      <point x="78" y="-5"/>
      <point x="31" y="-5" type="curve"/>
      <point x="21" y="-4"/>
      <point x="15" y="-1"/>
      <point x="7" y="5" type="curve"/>
      <point x="283" y="546" type="line"/>
      <point x="301" y="529"/>
      <point x="309" y="490"/>
      <point x="306" y="444" type="curve" smooth="yes"/>
      <point x="303" y="389"/>
      <point x="291" y="335"/>
      <point x="267" y="277" type="curve" smooth="yes"/>
      <point x="249" y="232"/>
      <point x="228" y="189"/>
      <point x="204" y="151" type="curve"/>
      <point x="196" y="156"/>
      <point x="185" y="168"/>
      <point x="175" y="179" type="curve"/>
    </contour>
    <contour>
      <point x="256" y="556" type="curve" smooth="yes"/>
      <point x="263" y="556"/>
      <point x="269" y="554"/>
      <point x="276" y="550" type="curve"/>
      <point x="0" y="9" type="line"/>
      <point x="-16" y="28"/>
      <point x="-24" y="64"/>
      <point x="-21" y="107" type="curve" smooth="yes"/>
      <point x="-18" y="162"/>
      <point x="-6" y="216"/>
      <point x="18" y="274" type="curve" smooth="yes"/>
      <point x="79" y="429"/>
      <point x="187" y="556"/>
    </contour>
  </outline>
</glyph>
<glyph name="uacute" format="2">
  <advance width="374"/>
  <unicode hex="00FA"/>
  <outline>
    <contour>
      <point x="308" y="552" type="line"/>
      <point x="185" y="283" type="line"/>
      <point x="183" y="277"/>
      <point x="178" y="268"/>
      <point x="175" y="262" type="curve" smooth="yes"/>
      <point x="115" y="142"/>
      <point x="25" y="6"/>
      <point x="-34" y="6" type="curve" smooth="yes"/>
      <point x="-55" y="6"/>
      <point x="-67" y="27"/>
      <point x="-67" y="60" type="curve" smooth="yes"/>
      <point x="-67" y="83"/>
      <point x="-58" y="119"/>
      <point x="-44" y="151" type="curve" smooth="yes"/>
      <point x="147" y="552" type="line"/>
      <point x="121" y="552" type="line"/>
      <point x="-2" y="283" type="line"/>
      <point x="-57" y="162" type="line" smooth="yes"/>
      <point x="-72" y="128"/>
      <point x="-79" y="94"/>
      <point x="-79" y="68" type="curve" smooth="yes"/>
      <point x="-79" y="26"/>
      <point x="-62" y="-2"/>
      <point x="-35" y="-2" type="curve" smooth="yes"/>
      <point x="13" y="-2"/>
      <point x="73" y="65"/>
      <point x="125" y="152" type="curve"/>
      <point x="115" y="124"/>
      <point x="107" y="90"/>
      <point x="107" y="69" type="curve" smooth="yes"/>
      <point x="107" y="26"/>
      <point x="125" y="-2"/>
      <point x="152" y="-2" type="curve" smooth="yes"/>
      <point x="222" y="-2"/>
      <point x="318" y="146"/>
      <point x="380" y="282" type="curve"/>
      <point x="372" y="284" type="line"/>
      <point x="313" y="156"/>
      <point x="218" y="6"/>
      <point x="152" y="6" type="curve" smooth="yes"/>
      <point x="131" y="6"/>
      <point x="119" y="27"/>
      <point x="119" y="60" type="curve" smooth="yes"/>
      <point x="119" y="83"/>
      <point x="128" y="119"/>
      <point x="142" y="151" type="curve" smooth="yes"/>
      <point x="334" y="552" type="line"/>
    </contour>
    <contour>
      <point x="206" y="692" type="line"/>
      <point x="249" y="712"/>
      <point x="297" y="736"/>
      <point x="340" y="757" type="curve"/>
      <point x="349" y="762"/>
      <point x="357" y="768"/>
      <point x="357" y="777" type="curve" smooth="yes"/>
      <point x="357" y="785"/>
      <point x="352" y="790"/>
      <point x="343" y="790" type="curve" smooth="yes"/>
      <point x="334" y="790"/>
      <point x="326" y="786"/>
      <point x="322" y="783" type="curve" smooth="yes"/>
      <point x="203" y="698" type="line"/>
    </contour>
  </outline>
</glyph>
<glyph name="yacute" format="2">
  <advance width="570"/>
  <unicode hex="00FD"/>
  <outline>
    <contour>
      <point x="228" y="567" type="curve" smooth="yes"/>
      <point x="157" y="567"/>
      <point x="61" y="420"/>
      <point x="-2" y="284" type="curve"/>
      <point x="6" y="282" type="line"/>
      <point x="66" y="410"/>
      <point x="161" y="558"/>
      <point x="228" y="558" type="curve" smooth="yes"/>
      <point x="249" y="558"/>
      <point x="276" y="546"/>
      <point x="269" y="493" type="curve" smooth="yes"/>
      <point x="263" y="437"/>
      <point x="231" y="391"/>
      <point x="197" y="342" type="curve" smooth="yes"/>
      <point x="173" y="307" type="line" smooth="yes"/>
      <point x="132" y="245"/>
      <point x="99" y="182"/>
      <point x="90" y="116" type="curve" smooth="yes"/>
      <point x="85" y="66"/>
      <point x="107" y="22"/>
      <point x="145" y="22" type="curve" smooth="yes"/>
      <point x="208" y="22"/>
      <point x="282" y="99"/>
      <point x="345" y="190" type="curve"/>
      <point x="339" y="173" type="line" smooth="yes"/>
      <point x="321" y="125"/>
      <point x="302" y="77"/>
      <point x="281" y="32" type="curve"/>
      <point x="263" y="25" type="line" smooth="yes"/>
      <point x="225" y="9"/>
      <point x="186" y="-4"/>
      <point x="149" y="-17" type="curve" smooth="yes"/>
      <point x="94" y="-36"/>
      <point x="41" y="-56"/>
      <point x="6" y="-75" type="curve" smooth="yes"/>
      <point x="-34" y="-98"/>
      <point x="-62" y="-124"/>
      <point x="-62" y="-159" type="curve" smooth="yes"/>
      <point x="-62" y="-192"/>
      <point x="-32" y="-217"/>
      <point x="13" y="-217" type="curve" smooth="yes"/>
      <point x="83" y="-217"/>
      <point x="201" y="-154"/>
      <point x="275" y="-25" type="curve"/>
      <point x="282" y="-11"/>
      <point x="296" y="18"/>
      <point x="302" y="33" type="curve"/>
      <point x="411" y="83"/>
      <point x="522" y="159"/>
      <point x="576" y="282" type="curve"/>
      <point x="568" y="284" type="line"/>
      <point x="516" y="166"/>
      <point x="415" y="95"/>
      <point x="306" y="44" type="curve"/>
      <point x="324" y="87"/>
      <point x="338" y="130"/>
      <point x="354" y="176" type="curve" smooth="yes"/>
      <point x="372" y="228" type="line"/>
      <point x="410" y="287"/>
      <point x="451" y="363"/>
      <point x="474" y="407" type="curve" smooth="yes"/>
      <point x="522" y="495"/>
      <point x="553" y="567"/>
      <point x="529" y="567" type="curve" smooth="yes"/>
      <point x="514" y="567"/>
      <point x="463" y="503"/>
      <point x="402" y="358" type="curve" smooth="yes"/>
      <point x="391" y="331"/>
      <point x="379" y="297"/>
      <point x="370" y="266" type="curve" smooth="yes"/>
      <point x="366" y="252"/>
      <point x="361" y="237"/>
      <point x="356" y="223" type="curve"/>
      <point x="292" y="129"/>
      <point x="207" y="31"/>
      <point x="145" y="31" type="curve" smooth="yes"/>
      <point x="118" y="31"/>
      <point x="97" y="66"/>
      <point x="102" y="110" type="curve"/>
      <point x="114" y="171"/>
      <point x="154" y="240"/>
      <point x="195" y="298" type="curve" smooth="yes"/>
      <point x="235" y="355"/>
      <point x="272" y="433"/>
      <point x="280" y="490" type="curve" smooth="yes"/>
      <point x="285" y="543"/>
      <point x="252" y="567"/>
    </contour>
    <contour>
      <point x="253" y="-22" type="line"/>
      <point x="185" y="-143"/>
      <point x="83" y="-208"/>
      <point x="20" y="-208" type="curve" smooth="yes"/>
      <point x="-20" y="-208"/>
      <point x="-42" y="-190"/>
      <point x="-42" y="-159" type="curve" smooth="yes"/>
      <point x="-42" y="-143"/>
      <point x="-35" y="-126"/>
      <point x="-23" y="-112" type="curve"/>
      <point x="-24" y="-112" type="line"/>
      <point x="6" y="-80"/>
      <point x="75" y="-54"/>
      <point x="157" y="-24" type="curve" smooth="yes"/>
      <point x="193" y="-11"/>
      <point x="236" y="5"/>
      <point x="274" y="21" type="curve"/>
    </contour>
    <contour>
      <point x="423" y="356" type="curve"/>
      <point x="498" y="528"/>
      <point x="522" y="558"/>
      <point x="529" y="558" type="curve" smooth="yes"/>
      <point x="540" y="558"/>
      <point x="513" y="496"/>
      <point x="466" y="412" type="curve" smooth="yes"/>
      <point x="447" y="375"/>
      <point x="418" y="322"/>
      <point x="385" y="267" type="curve"/>
      <point x="397" y="299"/>
      <point x="410" y="330"/>
    </contour>
    <contour>
      <point x="394" y="692" type="line"/>
      <point x="437" y="712"/>
      <point x="485" y="736"/>
      <point x="528" y="757" type="curve"/>
      <point x="537" y="762"/>
      <point x="545" y="768"/>
      <point x="545" y="777" type="curve" smooth="yes"/>
      <point x="545" y="785"/>
      <point x="540" y="790"/>
      <point x="531" y="790" type="curve" smooth="yes"/>
      <point x="522" y="790"/>
      <point x="514" y="786"/>
      <point x="510" y="783" type="curve" smooth="yes"/>
      <point x="391" y="698" type="line"/>
    </contour>
  </outline>
</glyph>
<glyph name="aogonek" format="2">
  <advance width="446"/>
  <unicode hex="0105"/>
  <outline>
    <contour>
      <point x="237" y="7" type="curve"/>
      <point x="230" y="6"/>
      <point x="227" y="6"/>
      <point x="224" y="6" type="curve" smooth="yes"/>
      <point x="203" y="6"/>
      <point x="191" y="27"/>
      <point x="191" y="60" type="curve" smooth="yes"/>
      <point x="191" y="83"/>
      <point x="200" y="119"/>
      <point x="214" y="151" type="curve" smooth="yes"/>
      <point x="406" y="552" type="line"/>
      <point x="380" y="552" type="line"/>
      <point x="213" y="188" type="line" smooth="yes"/>
      <point x="159" y="71"/>
      <point x="70" y="-4"/>
      <point x="20" y="-4" type="curve" smooth="yes"/>
      <point x="-13" y="-4"/>
      <point x="-28" y="27"/>
      <point x="-28" y="79" type="curve" smooth="yes"/>
      <point x="-28" y="91"/>
      <point x="-27" y="108"/>
      <point x="-25" y="123" type="curve" smooth="yes"/>
      <point x="-18" y="171"/>
      <point x="-5" y="221"/>
      <point x="16" y="274" type="curve"/>
      <point x="84" y="423"/>
      <point x="195" y="556"/>
      <point x="261" y="556" type="curve" smooth="yes"/>
      <point x="309" y="556"/>
      <point x="322" y="523"/>
      <point x="316" y="485" type="curve" smooth="yes"/>
      <point x="311" y="449"/>
      <point x="291" y="408"/>
      <point x="264" y="382" type="curve"/>
      <point x="265" y="375" type="line"/>
      <point x="298" y="405"/>
      <point x="323" y="449"/>
      <point x="328" y="485" type="curve" smooth="yes"/>
      <point x="333" y="527"/>
      <point x="312" y="565"/>
      <point x="261" y="565" type="curve" smooth="yes"/>
      <point x="182" y="565"/>
      <point x="63" y="440"/>
      <point x="-3" y="281" type="curve" smooth="yes"/>
      <point x="-27" y="217"/>
      <point x="-46" y="154"/>
      <point x="-46" y="93" type="curve" smooth="yes"/>
      <point x="-46" y="28"/>
      <point x="-22" y="-14"/>
      <point x="18" y="-14" type="curve" smooth="yes"/>
      <point x="62" y="-14"/>
      <point x="134" y="40"/>
      <point x="185" y="120" type="curve"/>
      <point x="180" y="102"/>
      <point x="179" y="85"/>
      <point x="179" y="69" type="curve" smooth="yes"/>
      <point x="179" y="30"/>
      <point x="193" y="4"/>
      <point x="215" y="-1" type="curve"/>
      <point x="168" y="-26"/>
      <point x="148" y="-61"/>
      <point x="148" y="-90" type="curve" smooth="yes"/>
      <point x="148" y="-119"/>
      <point x="171" y="-144"/>
      <point x="205" y="-144" type="curve" smooth="yes"/>
      <point x="215" y="-144"/>
      <point x="225" y="-142"/>
      <point x="234" y="-139" type="curve"/>
      <point x="232" y="-130" type="line"/>
      <point x="221" y="-134"/>
      <point x="211" y="-136"/>
      <point x="205" y="-136" type="curve" smooth="yes"/>
      <point x="180" y="-136"/>
      <point x="166" y="-118"/>
      <point x="166" y="-96" type="curve" smooth="yes"/>
      <point x="166" y="-66"/>
      <point x="191" y="-25"/>
      <point x="240" y="0" type="curve"/>
      <point x="306" y="26"/>
      <point x="396" y="161"/>
      <point x="452" y="282" type="curve"/>
      <point x="444" y="284" type="line"/>
      <point x="388" y="164"/>
      <point x="301" y="24"/>
    </contour>
  </outline>
</glyph>
<glyph name="dcaron" format="2">
  <advance width="659"/>
  <unicode hex="010F"/>
  <outline>
    <contour>
      <point x="259" y="556" type="curve" smooth="yes"/>
      <point x="307" y="556"/>
      <point x="320" y="523"/>
      <point x="314" y="485" type="curve" smooth="yes"/>
      <point x="309" y="449"/>
      <point x="289" y="408"/>
      <point x="262" y="382" type="curve"/>
      <point x="263" y="375" type="line"/>
      <point x="296" y="405"/>
      <point x="321" y="449"/>
      <point x="326" y="485" type="curve" smooth="yes"/>
      <point x="331" y="527"/>
      <point x="310" y="565"/>
      <point x="259" y="565" type="curve" smooth="yes"/>
      <point x="180" y="565"/>
      <point x="62" y="440"/>
      <point x="-5" y="281" type="curve" smooth="yes"/>
      <point x="-28" y="226"/>
      <point x="-47" y="153"/>
      <point x="-47" y="83" type="curve" smooth="yes"/>
      <point x="-47" y="29"/>
      <point x="-27" y="-14"/>
      <point x="16" y="-14" type="curve" smooth="yes"/>
      <point x="60" y="-14"/>
      <point x="132" y="40"/>
      <point x="183" y="120" type="curve"/>
      <point x="179" y="103"/>
      <point x="177" y="85"/>
      <point x="177" y="69" type="curve" smooth="yes"/>
      <point x="177" y="26"/>
      <point x="195" y="-2"/>
      <point x="222" y="-2" type="curve" smooth="yes"/>
      <point x="292" y="-2"/>
      <point x="388" y="146"/>
      <point x="450" y="282" type="curve"/>
      <point x="442" y="284" type="line"/>
      <point x="383" y="156"/>
      <point x="288" y="6"/>
      <point x="222" y="6" type="curve" smooth="yes"/>
      <point x="201" y="6"/>
      <point x="189" y="27"/>
      <point x="189" y="60" type="curve" smooth="yes"/>
      <point x="189" y="84"/>
      <point x="196" y="117"/>
      <point x="212" y="151" type="curve" smooth="yes"/>
      <point x="596" y="973" type="line"/>
      <point x="571" y="973" type="line"/>
      <point x="211" y="190" type="line" smooth="yes"/>
      <point x="153" y="73"/>
      <point x="69" y="-4"/>
      <point x="18" y="-4" type="curve" smooth="yes"/>
      <point x="-15" y="-4"/>
      <point x="-30" y="27"/>
      <point x="-30" y="79" type="curve" smooth="yes"/>
      <point x="-30" y="91"/>
      <point x="-29" y="108"/>
      <point x="-27" y="123" type="curve" smooth="yes"/>
      <point x="-20" y="171"/>
      <point x="-8" y="222"/>
      <point x="14" y="274" type="curve" smooth="yes"/>
      <point x="78" y="425"/>
      <point x="193" y="556"/>
    </contour>
    <contour>
      <point x="657" y="776" type="curve" smooth="yes"/>
      <point x="641" y="776"/>
      <point x="626" y="762"/>
      <point x="626" y="747" type="curve" smooth="yes"/>
      <point x="626" y="738"/>
      <point x="631" y="729"/>
      <point x="643" y="729" type="curve" smooth="yes"/>
      <point x="650" y="729" type="line"/>
      <point x="651" y="727"/>
      <point x="649" y="721"/>
      <point x="648" y="719" type="curve"/>
      <point x="634" y="699"/>
      <point x="619" y="681"/>
      <point x="599" y="667" type="curve"/>
      <point x="601" y="658" type="line"/>
      <point x="632" y="679"/>
      <point x="675" y="722"/>
      <point x="675" y="753" type="curve" smooth="yes"/>
      <point x="675" y="767"/>
      <point x="666" y="776"/>
    </contour>
  </outline>
</glyph>
<glyph name="eogonek" format="2">
  <advance width="345"/>
  <unicode hex="0119"/>
  <outline>
    <contour>
      <point x="344" y="285" type="line"/>
      <point x="279" y="148"/>
      <point x="169" y="-4"/>
      <point x="56" y="-4" type="curve" smooth="yes"/>
      <point x="11" y="-4"/>
      <point x="-19" y="37"/>
      <point x="-19" y="111" type="curve" smooth="yes"/>
      <point x="-19" y="128"/>
      <point x="-17" y="147"/>
      <point x="-14" y="167" type="curve" smooth="yes"/>
      <point x="-3" y="228"/>
      <point x="19" y="286"/>
      <point x="48" y="341" type="curve"/>
      <point x="53" y="318"/>
      <point x="80" y="290"/>
      <point x="124" y="290" type="curve" smooth="yes"/>
      <point x="204" y="290"/>
      <point x="309" y="403"/>
      <point x="322" y="491" type="curve" smooth="yes"/>
      <point x="326" y="525"/>
      <point x="306" y="565"/>
      <point x="267" y="565" type="curve" smooth="yes"/>
      <point x="176" y="565"/>
      <point x="4" y="380"/>
      <point x="-32" y="175" type="curve" smooth="yes"/>
      <point x="-35" y="156"/>
      <point x="-37" y="134"/>
      <point x="-37" y="117" type="curve" smooth="yes"/>
      <point x="-37" y="35"/>
      <point x="-1" y="-14"/>
      <point x="56" y="-14" type="curve" smooth="yes"/>
      <point x="60" y="-14"/>
      <point x="69" y="-14"/>
      <point x="74" y="-13" type="curve"/>
      <point x="40" y="-36"/>
      <point x="25" y="-65"/>
      <point x="25" y="-90" type="curve" smooth="yes"/>
      <point x="25" y="-119"/>
      <point x="48" y="-144"/>
      <point x="82" y="-144" type="curve" smooth="yes"/>
      <point x="92" y="-144"/>
      <point x="102" y="-142"/>
      <point x="111" y="-139" type="curve"/>
      <point x="109" y="-130" type="line"/>
      <point x="98" y="-134"/>
      <point x="88" y="-136"/>
      <point x="82" y="-136" type="curve" smooth="yes"/>
      <point x="57" y="-136"/>
      <point x="43" y="-118"/>
      <point x="43" y="-96" type="curve" smooth="yes"/>
      <point x="43" y="-66"/>
      <point x="58" y="-30"/>
      <point x="106" y="-5" type="curve"/>
      <point x="198" y="35"/>
      <point x="294" y="164"/>
      <point x="351" y="282" type="curve"/>
    </contour>
    <contour>
      <point x="308" y="498" type="curve" smooth="yes"/>
      <point x="297" y="405"/>
      <point x="197" y="299"/>
      <point x="119" y="299" type="curve" smooth="yes"/>
      <point x="80" y="299"/>
      <point x="57" y="330"/>
      <point x="55" y="350" type="curve"/>
      <point x="115" y="463"/>
      <point x="209" y="556"/>
      <point x="266" y="556" type="curve" smooth="yes"/>
      <point x="298" y="556"/>
      <point x="311" y="529"/>
    </contour>
  </outline>
</glyph>
<glyph name="gbreve" format="2">
  <advance width="446"/>
  <unicode hex="011F"/>
  <outline>
    <contour>
      <point x="321" y="488" type="curve"/>
      <point x="325" y="488" type="line"/>
      <point x="333" y="538"/>
      <point x="312" y="565"/>
      <point x="267" y="565" type="curve" smooth="yes"/>
      <point x="152" y="565"/>
      <point x="-33" y="305"/>
      <point x="-33" y="150" type="curve" smooth="yes"/>
      <point x="-33" y="84"/>
      <point x="-7" y="41"/>
      <point x="31" y="41" type="curve" smooth="yes"/>
      <point x="88" y="41"/>
      <point x="165" y="125"/>
      <point x="232" y="218" type="curve"/>
      <point x="227" y="201"/>
      <point x="222" y="187"/>
      <point x="217" y="173" type="curve" smooth="yes"/>
      <point x="199" y="126"/>
      <point x="180" y="76"/>
      <point x="159" y="32" type="curve"/>
      <point x="141" y="25" type="line" smooth="yes"/>
      <point x="103" y="9"/>
      <point x="64" y="-4"/>
      <point x="27" y="-17" type="curve" smooth="yes"/>
      <point x="-28" y="-36"/>
      <point x="-81" y="-56"/>
      <point x="-116" y="-75" type="curve" smooth="yes"/>
      <point x="-156" y="-98"/>
      <point x="-184" y="-124"/>
      <point x="-184" y="-159" type="curve" smooth="yes"/>
      <point x="-184" y="-192"/>
      <point x="-154" y="-217"/>
      <point x="-109" y="-217" type="curve" smooth="yes"/>
      <point x="-39" y="-217"/>
      <point x="79" y="-154"/>
      <point x="153" y="-25" type="curve"/>
      <point x="160" y="-11"/>
      <point x="174" y="18"/>
      <point x="180" y="33" type="curve"/>
      <point x="289" y="83"/>
      <point x="400" y="159"/>
      <point x="454" y="282" type="curve"/>
      <point x="446" y="284" type="line"/>
      <point x="394" y="166"/>
      <point x="293" y="95"/>
      <point x="184" y="44" type="curve"/>
      <point x="202" y="86"/>
      <point x="218" y="136"/>
      <point x="233" y="180" type="curve" smooth="yes"/>
      <point x="242" y="205"/>
      <point x="250" y="233"/>
      <point x="259" y="257" type="curve"/>
      <point x="295" y="310"/>
      <point x="331" y="368"/>
      <point x="352" y="407" type="curve" smooth="yes"/>
      <point x="400" y="495"/>
      <point x="431" y="567"/>
      <point x="407" y="567" type="curve" smooth="yes"/>
      <point x="392" y="567"/>
      <point x="341" y="503"/>
      <point x="280" y="358" type="curve" smooth="yes"/>
      <point x="270" y="335"/>
      <point x="260" y="304"/>
      <point x="251" y="277" type="curve" smooth="yes"/>
      <point x="242" y="249" type="line"/>
      <point x="173" y="150"/>
      <point x="87" y="50"/>
      <point x="31" y="50" type="curve" smooth="yes"/>
      <point x="1" y="50"/>
      <point x="-14" y="83"/>
      <point x="-14" y="136" type="curve" smooth="yes"/>
      <point x="-14" y="290"/>
      <point x="169" y="557"/>
      <point x="271" y="557" type="curve" smooth="yes"/>
      <point x="314" y="557"/>
      <point x="327" y="524"/>
    </contour>
    <contour>
      <point x="131" y="-22" type="line"/>
      <point x="63" y="-143"/>
      <point x="-39" y="-208"/>
      <point x="-102" y="-208" type="curve" smooth="yes"/>
      <point x="-142" y="-208"/>
      <point x="-164" y="-190"/>
      <point x="-164" y="-159" type="curve" smooth="yes"/>
      <point x="-164" y="-143"/>
      <point x="-157" y="-126"/>
      <point x="-145" y="-112" type="curve"/>
      <point x="-146" y="-112" type="line"/>
      <point x="-116" y="-80"/>
      <point x="-47" y="-54"/>
      <point x="35" y="-24" type="curve" smooth="yes"/>
      <point x="71" y="-11"/>
      <point x="114" y="5"/>
      <point x="152" y="21" type="curve"/>
    </contour>
    <contour>
      <point x="407" y="558" type="curve" smooth="yes"/>
      <point x="418" y="558"/>
      <point x="389" y="493"/>
      <point x="344" y="412" type="curve" smooth="yes"/>
      <point x="328" y="384"/>
      <point x="302" y="339"/>
      <point x="275" y="297" type="curve"/>
      <point x="283" y="318"/>
      <point x="291" y="338"/>
      <point x="301" y="356" type="curve"/>
      <point x="376" y="528"/>
      <point x="400" y="558"/>
    </contour>
    <contour>
      <point x="410" y="742" type="line"/>
      <point x="404" y="713"/>
      <point x="374" y="689"/>
      <point x="348" y="689" type="curve" smooth="yes"/>
      <point x="328" y="689"/>
      <point x="315" y="701"/>
      <point x="315" y="718" type="curve" smooth="yes"/>
      <point x="315" y="726"/>
      <point x="316" y="732"/>
      <point x="321" y="742" type="curve"/>
      <point x="300" y="742" type="line"/>
      <point x="295" y="734"/>
      <point x="294" y="727"/>
      <point x="294" y="719" type="curve" smooth="yes"/>
      <point x="294" y="697"/>
      <point x="316" y="681"/>
      <point x="348" y="681" type="curve" smooth="yes"/>
      <point x="386" y="681"/>
      <point x="425" y="707"/>
      <point x="431" y="742" type="curve"/>
    </contour>
  </outline>
</glyph>
<glyph name="gcommaaccent" format="2">
  <advance width="446"/>
  <unicode hex="0123"/>
  <outline>
    <contour>
      <point x="321" y="488" type="curve"/>
      <point x="325" y="488" type="line"/>
      <point x="333" y="538"/>
      <point x="312" y="565"/>
      <point x="267" y="565" type="curve" smooth="yes"/>
      <point x="152" y="565"/>
      <point x="-33" y="305"/>
      <point x="-33" y="150" type="curve" smooth="yes"/>
      <point x="-33" y="84"/>
      <point x="-7" y="41"/>
      <point x="31" y="41" type="curve" smooth="yes"/>
      <point x="88" y="41"/>
      <point x="165" y="125"/>
      <point x="232" y="218" type="curve"/>
      <point x="227" y="201"/>
      <point x="222" y="187"/>
      <point x="217" y="173" type="curve" smooth="yes"/>
      <point x="199" y="126"/>
      <point x="180" y="76"/>
      <point x="159" y="32" type="curve"/>
      <point x="141" y="25" type="line" smooth="yes"/>
      <point x="103" y="9"/>
      <point x="64" y="-4"/>
      <point x="27" y="-17" type="curve" smooth="yes"/>
      <point x="-28" y="-36"/>
      <point x="-81" y="-56"/>
      <point x="-116" y="-75" type="curve" smooth="yes"/>
      <point x="-156" y="-98"/>
      <point x="-184" y="-124"/>
      <point x="-184" y="-159" type="curve" smooth="yes"/>
      <point x="-184" y="-192"/>
      <point x="-154" y="-217"/>
      <point x="-109" y="-217" type="curve" smooth="yes"/>
      <point x="-39" y="-217"/>
      <point x="79" y="-154"/>
      <point x="153" y="-25" type="curve"/>
      <point x="160" y="-11"/>
      <point x="174" y="18"/>
      <point x="180" y="33" type="curve"/>
      <point x="289" y="83"/>
      <point x="400" y="159"/>
      <point x="454" y="282" type="curve"/>
      <point x="446" y="284" type="line"/>
      <point x="394" y="166"/>
      <point x="293" y="95"/>
      <point x="184" y="44" type="curve"/>
      <point x="202" y="86"/>
      <point x="218" y="136"/>
      <point x="233" y="180" type="curve" smooth="yes"/>
      <point x="242" y="205"/>
      <point x="250" y="233"/>
      <point x="259" y="257" type="curve"/>
      <point x="295" y="310"/>
      <point x="331" y="368"/>
      <point x="352" y="407" type="curve" smooth="yes"/>
      <point x="400" y="495"/>
      <point x="431" y="567"/>
      <point x="407" y="567" type="curve" smooth="yes"/>
      <point x="392" y="567"/>
      <point x="341" y="503"/>
      <point x="280" y="358" type="curve" smooth="yes"/>
      <point x="270" y="335"/>
      <point x="260" y="304"/>
      <point x="251" y="277" type="curve" smooth="yes"/>
      <point x="242" y="249" type="line"/>
      <point x="173" y="150"/>
      <point x="87" y="50"/>
      <point x="31" y="50" type="curve" smooth="yes"/>
      <point x="1" y="50"/>
      <point x="-14" y="83"/>
      <point x="-14" y="136" type="curve" smooth="yes"/>
      <point x="-14" y="290"/>
      <point x="169" y="557"/>
      <point x="271" y="557" type="curve" smooth="yes"/>
      <point x="314" y="557"/>
      <point x="327" y="524"/>
    </contour>
    <contour>
      <point x="131" y="-22" type="line"/>
      <point x="63" y="-143"/>
      <point x="-39" y="-208"/>
      <point x="-102" y="-208" type="curve" smooth="yes"/>
      <point x="-142" y="-208"/>
      <point x="-164" y="-190"/>
      <point x="-164" y="-159" type="curve" smooth="yes"/>
      <point x="-164" y="-143"/>
      <point x="-157" y="-126"/>
      <point x="-145" y="-112" type="curve"/>
      <point x="-146" y="-112" type="line"/>
      <point x="-116" y="-80"/>
      <point x="-47" y="-54"/>
      <point x="35" y="-24" type="curve" smooth="yes"/>
      <point x="71" y="-11"/>
      <point x="114" y="5"/>
      <point x="152" y="21" type="curve"/>
    </contour>
    <contour>
      <point x="407" y="558" type="curve" smooth="yes"/>
      <point x="418" y="558"/>
      <point x="389" y="493"/>
      <point x="344" y="412" type="curve" smooth="yes"/>
      <point x="328" y="384"/>
      <point x="302" y="339"/>
      <point x="275" y="297" type="curve"/>
      <point x="283" y="318"/>
      <point x="291" y="338"/>
      <point x="301" y="356" type="curve"/>
      <point x="376" y="528"/>
      <point x="400" y="558"/>
    </contour>
    <contour>
      <point x="344" y="680" type="curve" smooth="yes"/>
      <point x="360" y="680"/>
      <point x="375" y="694"/>
      <point x="375" y="709" type="curve" smooth="yes"/>
      <point x="375" y="718"/>
      <point x="370" y="727"/>
      <point x="358" y="727" type="curve" smooth="yes"/>
      <point x="351" y="727" type="line"/>
      <point x="350" y="729"/>
      <point x="352" y="735"/>
      <point x="353" y="737" type="curve"/>
      <point x="367" y="757"/>
      <point x="382" y="775"/>
      <point x="402" y="789" type="curve"/>
      <point x="400" y="798" type="line"/>
      <point x="369" y="777"/>
      <point x="326" y="734"/>
      <point x="326" y="703" type="curve" smooth="yes"/>
      <point x="326" y="689"/>
      <point x="335" y="680"/>
    </contour>
  </outline>
</glyph>
<glyph name="kcommaaccent" format="2">
  <advance width="476"/>
  <unicode hex="0137"/>
  <outline>
    <contour>
      <point x="31" y="-136" type="curve" smooth="yes"/>
      <point x="15" y="-136"/>
      <point x="0" y="-150"/>
      <point x="0" y="-165" type="curve" smooth="yes"/>
      <point x="0" y="-174"/>
      <point x="5" y="-183"/>
      <point x="17" y="-183" type="curve" smooth="yes"/>
      <point x="24" y="-183" type="line"/>
      <point x="25" y="-185"/>
      <point x="23" y="-191"/>
      <point x="22" y="-193" type="curve"/>
      <point x="8" y="-213"/>
      <point x="-7" y="-231"/>
      <point x="-27" y="-245" type="curve"/>
      <point x="-25" y="-254" type="line"/>
      <point x="6" y="-233"/>
      <point x="49" y="-190"/>
      <point x="49" y="-159" type="curve" smooth="yes"/>
      <point x="49" y="-145"/>
      <point x="40" y="-136"/>
    </contour>
    <contour>
      <point x="-109" y="5" type="line"/>
      <point x="-22" y="195" type="line" smooth="yes"/>
      <point x="56" y="346"/>
      <point x="218" y="588"/>
      <point x="302" y="588" type="curve" smooth="yes"/>
      <point x="325" y="588"/>
      <point x="355" y="576"/>
      <point x="355" y="514" type="curve" smooth="yes"/>
      <point x="355" y="439"/>
      <point x="292" y="336"/>
      <point x="211" y="336" type="curve" smooth="yes"/>
      <point x="198" y="336"/>
      <point x="178" y="341"/>
      <point x="165" y="365" type="curve"/>
      <point x="161" y="364" type="line"/>
      <point x="159" y="356" type="line"/>
      <point x="160" y="354"/>
      <point x="161" y="352"/>
      <point x="163" y="350" type="curve"/>
      <point x="158" y="341" type="line"/>
      <point x="156" y="338"/>
      <point x="153" y="331"/>
      <point x="152" y="328" type="curve"/>
      <point x="116" y="268"/>
      <point x="88" y="211"/>
      <point x="88" y="133" type="curve" smooth="yes"/>
      <point x="88" y="54"/>
      <point x="122" y="-2"/>
      <point x="177" y="-2" type="curve" smooth="yes"/>
      <point x="263" y="-2"/>
      <point x="360" y="146"/>
      <point x="422" y="282" type="curve"/>
      <point x="414" y="284" type="line"/>
      <point x="355" y="156"/>
      <point x="259" y="7"/>
      <point x="178" y="7" type="curve" smooth="yes"/>
      <point x="131" y="7"/>
      <point x="109" y="55"/>
      <point x="109" y="122" type="curve" smooth="yes"/>
      <point x="109" y="181"/>
      <point x="128" y="259"/>
      <point x="165" y="331" type="curve"/>
      <point x="167" y="334"/>
      <point x="173" y="338"/>
      <point x="179" y="335" type="curve" smooth="yes"/>
      <point x="192" y="328"/>
      <point x="210" y="325"/>
      <point x="221" y="325" type="curve" smooth="yes"/>
      <point x="319" y="325"/>
      <point x="376" y="437"/>
      <point x="376" y="503" type="curve" smooth="yes"/>
      <point x="376" y="567"/>
      <point x="339" y="598"/>
      <point x="305" y="598" type="curve" smooth="yes"/>
      <point x="233" y="598"/>
      <point x="115" y="449"/>
      <point x="31" y="310" type="curve"/>
      <point x="337" y="973" type="line"/>
      <point x="315" y="973" type="line"/>
      <point x="-131" y="5" type="line"/>
    </contour>
  </outline>
</glyph>
<glyph name="Lacute" format="2">
  <advance width="642"/>
  <unicode hex="0139"/>
  <outline>
    <contour>
      <point x="836" y="972" type="curve" smooth="yes"/>
      <point x="678" y="972"/>
      <point x="508" y="643"/>
      <point x="407" y="448" type="curve" smooth="yes"/>
      <point x="372" y="381" type="line" smooth="yes"/>
      <point x="362" y="361"/>
      <point x="349" y="339"/>
      <point x="338" y="319" type="curve"/>
      <point x="329" y="319" type="line" smooth="yes"/>
      <point x="183" y="319"/>
      <point x="56" y="415"/>
      <point x="56" y="567" type="curve" smooth="yes"/>
      <point x="56" y="710"/>
      <point x="169" y="815"/>
      <point x="287" y="815" type="curve" smooth="yes"/>
      <point x="372" y="815"/>
      <point x="426" y="759"/>
      <point x="426" y="693" type="curve" smooth="yes"/>
      <point x="426" y="628"/>
      <point x="375" y="557"/>
      <point x="292" y="557" type="curve" smooth="yes"/>
      <point x="270" y="557"/>
      <point x="236" y="566"/>
      <point x="228" y="609" type="curve"/>
      <point x="224" y="608" type="line"/>
      <point x="228" y="569"/>
      <point x="261" y="551"/>
      <point x="299" y="551" type="curve" smooth="yes"/>
      <point x="390" y="551"/>
      <point x="440" y="625"/>
      <point x="440" y="692" type="curve" smooth="yes"/>
      <point x="440" y="767"/>
      <point x="377" y="823"/>
      <point x="286" y="823" type="curve" smooth="yes"/>
      <point x="161" y="823"/>
      <point x="35" y="719"/>
      <point x="35" y="570" type="curve" smooth="yes"/>
      <point x="35" y="413"/>
      <point x="173" y="310"/>
      <point x="328" y="310" type="curve" smooth="yes"/>
      <point x="332" y="310" type="line"/>
      <point x="261" y="197"/>
      <point x="159" y="84"/>
      <point x="31" y="43" type="curve"/>
      <point x="-1" y="53"/>
      <point x="-47" y="64"/>
      <point x="-92" y="64" type="curve" smooth="yes"/>
      <point x="-119" y="64"/>
      <point x="-134" y="55"/>
      <point x="-134" y="45" type="curve" smooth="yes"/>
      <point x="-134" y="34"/>
      <point x="-116" y="20"/>
      <point x="-80" y="20" type="curve" smooth="yes"/>
      <point x="-42" y="20"/>
      <point x="-10" y="24"/>
      <point x="22" y="31" type="curve"/>
      <point x="90" y="7"/>
      <point x="175" y="-44"/>
      <point x="238" y="-83" type="curve" smooth="yes"/>
      <point x="350" y="-153"/>
      <point x="504" y="-242"/>
      <point x="648" y="-242" type="curve" smooth="yes"/>
      <point x="836" y="-242"/>
      <point x="943" y="-119"/>
      <point x="918" y="-31" type="curve"/>
      <point x="909" y="-33" type="line"/>
      <point x="932" y="-117"/>
      <point x="804" y="-222"/>
      <point x="624" y="-222" type="curve" smooth="yes"/>
      <point x="480" y="-222"/>
      <point x="356" y="-145"/>
      <point x="243" y="-74" type="curve" smooth="yes"/>
      <point x="201" y="-47" type="line" smooth="yes"/>
      <point x="152" y="-14"/>
      <point x="106" y="17"/>
      <point x="50" y="38" type="curve"/>
      <point x="189" y="77"/>
      <point x="287" y="187"/>
      <point x="361" y="311" type="curve"/>
      <point x="652" y="338"/>
      <point x="912" y="715"/>
      <point x="912" y="872" type="curve" smooth="yes"/>
      <point x="912" y="919"/>
      <point x="886" y="972"/>
    </contour>
    <contour>
      <point x="835" y="964" type="curve" smooth="yes"/>
      <point x="878" y="964"/>
      <point x="897" y="927"/>
      <point x="897" y="885" type="curve" smooth="yes"/>
      <point x="897" y="733"/>
      <point x="651" y="353"/>
      <point x="367" y="322" type="curve"/>
      <point x="380" y="344"/>
      <point x="390" y="363"/>
      <point x="402" y="386" type="curve" smooth="yes"/>
      <point x="435" y="451" type="line" smooth="yes"/>
      <point x="532" y="644"/>
      <point x="694" y="964"/>
    </contour>
    <contour>
      <point x="-80" y="29" type="curve" smooth="yes"/>
      <point x="-98" y="29"/>
      <point x="-109" y="35"/>
      <point x="-109" y="41" type="curve" smooth="yes"/>
      <point x="-109" y="46"/>
      <point x="-100" y="52"/>
      <point x="-83" y="52" type="curve" smooth="yes"/>
      <point x="-58" y="52"/>
      <point x="-22" y="45"/>
      <point x="5" y="36" type="curve"/>
      <point x="-22" y="29"/>
      <point x="-52" y="29"/>
    </contour>
    <contour>
      <point x="846" y="1124" type="line"/>
      <point x="889" y="1144"/>
      <point x="937" y="1168"/>
      <point x="980" y="1189" type="curve"/>
      <point x="989" y="1194"/>
      <point x="997" y="1200"/>
      <point x="997" y="1209" type="curve" smooth="yes"/>
      <point x="997" y="1217"/>
      <point x="992" y="1222"/>
      <point x="983" y="1222" type="curve" smooth="yes"/>
      <point x="974" y="1222"/>
      <point x="966" y="1218"/>
      <point x="962" y="1215" type="curve" smooth="yes"/>
      <point x="843" y="1130" type="line"/>
    </contour>
  </outline>
</glyph>
<glyph name="scedilla" format="2">
  <advance width="296"/>
  <unicode hex="015F"/>
  <outline>
    <contour>
      <point x="5" y="281" type="line"/>
      <point x="72" y="414"/>
      <point x="128" y="524"/>
      <point x="162" y="614" type="curve"/>
      <point x="185" y="551"/>
      <point x="213" y="476"/>
      <point x="213" y="389" type="curve" smooth="yes"/>
      <point x="213" y="362"/>
      <point x="211" y="335"/>
      <point x="205" y="305" type="curve" smooth="yes"/>
      <point x="167" y="113"/>
      <point x="37" y="-6"/>
      <point x="-61" y="-6" type="curve" smooth="yes"/>
      <point x="-104" y="-6"/>
      <point x="-126" y="31"/>
      <point x="-123" y="78" type="curve" smooth="yes"/>
      <point x="-120" y="147"/>
      <point x="-57" y="272"/>
      <point x="29" y="264" type="curve" smooth="yes"/>
      <point x="52" y="262"/>
      <point x="68" y="238"/>
      <point x="66" y="207" type="curve" smooth="yes"/>
      <point x="65" y="189"/>
      <point x="58" y="166"/>
      <point x="44" y="144" type="curve"/>
      <point x="54" y="142" type="line"/>
      <point x="73" y="166"/>
      <point x="84" y="191"/>
      <point x="85" y="212" type="curve" smooth="yes"/>
      <point x="86" y="246"/>
      <point x="62" y="270"/>
      <point x="30" y="272" type="curve" smooth="yes"/>
      <point x="-69" y="281"/>
      <point x="-139" y="147"/>
      <point x="-142" y="84" type="curve" smooth="yes"/>
      <point x="-145" y="33"/>
      <point x="-116" y="-12"/>
      <point x="-66" y="-14" type="curve"/>
      <point x="-71" y="-30"/>
      <point x="-65" y="-45"/>
      <point x="-60" y="-58" type="curve" smooth="yes"/>
      <point x="-57" y="-66"/>
      <point x="-52" y="-79"/>
      <point x="-52" y="-87" type="curve" smooth="yes"/>
      <point x="-52" y="-119"/>
      <point x="-80" y="-166"/>
      <point x="-146" y="-178" type="curve"/>
      <point x="-146" y="-182" type="line"/>
      <point x="-78" y="-172"/>
      <point x="-34" y="-135"/>
      <point x="-34" y="-100" type="curve" smooth="yes"/>
      <point x="-34" y="-87"/>
      <point x="-40" y="-76"/>
      <point x="-46" y="-64" type="curve"/>
      <point x="-55" y="-49"/>
      <point x="-63" y="-31"/>
      <point x="-57" y="-14" type="curve"/>
      <point x="50" y="-9"/>
      <point x="189" y="107"/>
      <point x="227" y="305" type="curve" smooth="yes"/>
      <point x="232" y="330"/>
      <point x="234" y="354"/>
      <point x="234" y="377" type="curve" smooth="yes"/>
      <point x="234" y="457"/>
      <point x="203" y="543"/>
      <point x="179" y="604" type="curve" smooth="yes"/>
      <point x="168" y="631" type="line"/>
      <point x="184" y="678"/>
      <point x="196" y="721"/>
      <point x="198" y="754" type="curve" smooth="yes"/>
      <point x="201" y="807"/>
      <point x="183" y="833"/>
      <point x="166" y="833" type="curve" smooth="yes"/>
      <point x="150" y="833"/>
      <point x="128" y="818"/>
      <point x="126" y="768" type="curve" smooth="yes"/>
      <point x="123" y="724"/>
      <point x="140" y="676"/>
      <point x="158" y="626" type="curve"/>
      <point x="126" y="540"/>
      <point x="66" y="422"/>
      <point x="-3" y="284" type="curve"/>
    </contour>
    <contour>
      <point x="138" y="757" type="curve" smooth="yes"/>
      <point x="141" y="802"/>
      <point x="157" y="823"/>
      <point x="169" y="823" type="curve" smooth="yes"/>
      <point x="182" y="823"/>
      <point x="193" y="803"/>
      <point x="190" y="754" type="curve" smooth="yes"/>
      <point x="188" y="724"/>
      <point x="179" y="687"/>
      <point x="164" y="642" type="curve"/>
      <point x="148" y="684"/>
      <point x="136" y="722"/>
    </contour>
  </outline>
</glyph>
<glyph name="scaron" format="2">
  <advance width="296"/>
  <unicode hex="0161"/>
  <outline>
    <contour>
      <point x="202" y="326" type="curve" smooth="yes"/>
      <point x="202" y="356"/>
      <point x="198" y="382"/>
      <point x="194" y="407" type="curve" smooth="yes"/>
      <point x="190" y="432"/>
      <point x="187" y="458"/>
      <point x="187" y="487" type="curve" smooth="yes"/>
      <point x="187" y="525"/>
      <point x="198" y="569"/>
      <point x="240" y="597" type="curve"/>
      <point x="250" y="602"/>
      <point x="259" y="604"/>
      <point x="268" y="604" type="curve" smooth="yes"/>
      <point x="276" y="604"/>
      <point x="287" y="602"/>
      <point x="304" y="597" type="curve"/>
      <point x="304" y="621" type="line"/>
      <point x="176" y="621"/>
      <point x="64" y="426"/>
      <point x="-3" y="280" type="curve"/>
      <point x="5" y="278" type="line"/>
      <point x="52" y="381"/>
      <point x="126" y="510"/>
      <point x="204" y="574" type="curve"/>
      <point x="181" y="546"/>
      <point x="179" y="517"/>
      <point x="179" y="487" type="curve" smooth="yes"/>
      <point x="179" y="332" type="line" smooth="yes"/>
      <point x="179" y="285"/>
      <point x="162" y="222"/>
      <point x="138" y="169" type="curve" smooth="yes"/>
      <point x="93" y="77"/>
      <point x="16" y="-6"/>
      <point x="-75" y="-6" type="curve" smooth="yes"/>
      <point x="-118" y="-6"/>
      <point x="-140" y="31"/>
      <point x="-137" y="78" type="curve" smooth="yes"/>
      <point x="-134" y="147"/>
      <point x="-71" y="272"/>
      <point x="15" y="264" type="curve" smooth="yes"/>
      <point x="38" y="262"/>
      <point x="54" y="238"/>
      <point x="52" y="207" type="curve" smooth="yes"/>
      <point x="51" y="189"/>
      <point x="44" y="166"/>
      <point x="30" y="144" type="curve"/>
      <point x="40" y="142" type="line"/>
      <point x="59" y="166"/>
      <point x="70" y="191"/>
      <point x="71" y="212" type="curve" smooth="yes"/>
      <point x="72" y="246"/>
      <point x="48" y="270"/>
      <point x="16" y="272" type="curve" smooth="yes"/>
      <point x="-83" y="281"/>
      <point x="-153" y="147"/>
      <point x="-156" y="84" type="curve" smooth="yes"/>
      <point x="-159" y="32"/>
      <point x="-127" y="-14"/>
      <point x="-75" y="-14" type="curve" smooth="yes"/>
      <point x="25" y="-14"/>
      <point x="110" y="59"/>
      <point x="158" y="151" type="curve" smooth="yes"/>
      <point x="187" y="206"/>
      <point x="202" y="270"/>
    </contour>
    <contour>
      <point x="343" y="817" type="line"/>
      <point x="343" y="817"/>
      <point x="215" y="726"/>
      <point x="190" y="708" type="curve"/>
      <point x="142" y="811" type="line"/>
      <point x="135" y="810" type="line"/>
      <point x="179" y="672" type="line"/>
      <point x="346" y="810" type="line"/>
    </contour>
  </outline>
</glyph>
<glyph name="uring" format="2">
  <advance width="374"/>
  <unicode hex="016F"/>
  <outline>
    <contour>
      <point x="308" y="552" type="line"/>
      <point x="185" y="283" type="line"/>
      <point x="183" y="277"/>
      <point x="178" y="268"/>
      <point x="175" y="262" type="curve" smooth="yes"/>
      <point x="115" y="142"/>
      <point x="25" y="6"/>
      <point x="-34" y="6" type="curve" smooth="yes"/>
      <point x="-55" y="6"/>
      <point x="-67" y="27"/>
      <point x="-67" y="60" type="curve" smooth="yes"/>
      <point x="-67" y="83"/>
      <point x="-58" y="119"/>
      <point x="-44" y="151" type="curve" smooth="yes"/>
      <point x="147" y="552" type="line"/>
      <point x="121" y="552" type="line"/>
      <point x="-2" y="283" type="line"/>
      <point x="-57" y="162" type="line" smooth="yes"/>
      <point x="-72" y="128"/>
      <point x="-79" y="94"/>
      <point x="-79" y="68" type="curve" smooth="yes"/>
      <point x="-79" y="26"/>
      <point x="-62" y="-2"/>
      <point x="-35" y="-2" type="curve" smooth="yes"/>
      <point x="13" y="-2"/>
      <point x="73" y="65"/>
      <point x="125" y="152" type="curve"/>
      <point x="115" y="124"/>
      <point x="107" y="90"/>
      <point x="107" y="69" type="curve" smooth="yes"/>
      <point x="107" y="26"/>
      <point x="125" y="-2"/>
      <point x="152" y="-2" type="curve" smooth="yes"/>
      <point x="222" y="-2"/>
      <point x="318" y="146"/>
      <point x="380" y="282" type="curve"/>
      <point x="372" y="284" type="line"/>
      <point x="313" y="156"/>
      <point x="218" y="6"/>
      <point x="152" y="6" type="curve" smooth="yes"/>
      <point x="131" y="6"/>
      <point x="119" y="27"/>
      <point x="119" y="60" type="curve" smooth="yes"/>
      <point x="119" y="83"/>
      <point x="128" y="119"/>
      <point x="142" y="151" type="curve" smooth="yes"/>
      <point x="334" y="552" type="line"/>
    </contour>
    <contour>
      <point x="220" y="719" type="curve" smooth="yes"/>
      <point x="220" y="697"/>
      <point x="242" y="681"/>
      <point x="274" y="681" type="curve" smooth="yes"/>
      <point x="315" y="681"/>
      <point x="358" y="711"/>
      <point x="358" y="749" type="curve" smooth="yes"/>
      <point x="358" y="771"/>
      <point x="338" y="788"/>
      <point x="305" y="788" type="curve" smooth="yes"/>
      <point x="265" y="788"/>
      <point x="220" y="757"/>
    </contour>
    <contour>
      <point x="305" y="780" type="curve" smooth="yes"/>
      <point x="325" y="780"/>
      <point x="337" y="767"/>
      <point x="337" y="749" type="curve" smooth="yes"/>
      <point x="337" y="717"/>
      <point x="303" y="689"/>
      <point x="274" y="689" type="curve" smooth="yes"/>
      <point x="254" y="689"/>
      <point x="241" y="701"/>
      <point x="241" y="718" type="curve" smooth="yes"/>
      <point x="241" y="751"/>
      <point x="276" y="780"/>
    </contour>
  </outline>
</glyph>
<glyph name="Uhungarumlaut" format="2">
  <advance width="899"/>
  <unicode hex="0170"/>
  <outline>
    <contour>
      <point x="299" y="113" type="curve" smooth="yes"/>
      <point x="299" y="49"/>
      <point x="322" y="-10"/>
      <point x="397" y="-10" type="curve" smooth="yes"/>
      <point x="507" y="-10"/>
      <point x="646" y="155"/>
      <point x="733" y="287" type="curve"/>
      <point x="714" y="245"/>
      <point x="710" y="233"/>
      <point x="694" y="191" type="curve" smooth="yes"/>
      <point x="664" y="113"/>
      <point x="637" y="22"/>
      <point x="637" y="-55" type="curve" smooth="yes"/>
      <point x="637" y="-140"/>
      <point x="674" y="-214"/>
      <point x="758" y="-214" type="curve" smooth="yes"/>
      <point x="844" y="-214"/>
      <point x="867" y="-153"/>
      <point x="867" y="-124" type="curve" smooth="yes"/>
      <point x="867" y="-113"/>
      <point x="861" y="-86"/>
      <point x="838" y="-77" type="curve"/>
      <point x="836" y="-81" type="line"/>
      <point x="852" y="-91"/>
      <point x="856" y="-107"/>
      <point x="856" y="-117" type="curve" smooth="yes"/>
      <point x="856" y="-142"/>
      <point x="836" y="-206"/>
      <point x="758" y="-206" type="curve" smooth="yes"/>
      <point x="689" y="-206"/>
      <point x="656" y="-139"/>
      <point x="656" y="-61" type="curve" smooth="yes"/>
      <point x="656" y="10"/>
      <point x="681" y="98"/>
      <point x="712" y="176" type="curve" smooth="yes"/>
      <point x="857" y="540"/>
      <point x="1076" y="947"/>
      <point x="1304" y="947" type="curve" smooth="yes"/>
      <point x="1343" y="947"/>
      <point x="1380" y="919"/>
      <point x="1388" y="876" type="curve"/>
      <point x="1392" y="875" type="line"/>
      <point x="1394" y="881"/>
      <point x="1395" y="887"/>
      <point x="1395" y="893" type="curve" smooth="yes"/>
      <point x="1395" y="930"/>
      <point x="1348" y="955"/>
      <point x="1306" y="955" type="curve" smooth="yes"/>
      <point x="1118" y="955"/>
      <point x="908" y="659"/>
      <point x="767" y="363" type="curve"/>
      <point x="687" y="228"/>
      <point x="522" y="0"/>
      <point x="403" y="0" type="curve" smooth="yes"/>
      <point x="338" y="0"/>
      <point x="315" y="45"/>
      <point x="315" y="97" type="curve" smooth="yes"/>
      <point x="315" y="192"/>
      <point x="389" y="340"/>
      <point x="480" y="504" type="curve" smooth="yes"/>
      <point x="550" y="627"/>
      <point x="653" y="738"/>
      <point x="708" y="781" type="curve"/>
      <point x="716" y="788"/>
      <point x="730" y="796"/>
      <point x="739" y="802" type="curve" smooth="yes"/>
      <point x="765" y="818"/>
      <point x="790" y="833"/>
      <point x="790" y="858" type="curve" smooth="yes"/>
      <point x="790" y="935"/>
      <point x="609" y="978"/>
      <point x="470" y="978" type="curve" smooth="yes"/>
      <point x="234" y="978"/>
      <point x="-34" y="836"/>
      <point x="-34" y="595" type="curve" smooth="yes"/>
      <point x="-34" y="496"/>
      <point x="25" y="388"/>
      <point x="152" y="385" type="curve" smooth="yes"/>
      <point x="281" y="385"/>
      <point x="407" y="498"/>
      <point x="407" y="632" type="curve" smooth="yes"/>
      <point x="407" y="717"/>
      <point x="345" y="762"/>
      <point x="276" y="762" type="curve" smooth="yes"/>
      <point x="188" y="762"/>
      <point x="104" y="689"/>
      <point x="104" y="616" type="curve" smooth="yes"/>
      <point x="104" y="598"/>
      <point x="116" y="568"/>
      <point x="132" y="571" type="curve"/>
      <point x="122" y="587"/>
      <point x="118" y="600"/>
      <point x="118" y="613" type="curve" smooth="yes"/>
      <point x="118" y="684"/>
      <point x="190" y="753"/>
      <point x="275" y="753" type="curve" smooth="yes"/>
      <point x="335" y="753"/>
      <point x="389" y="716"/>
      <point x="389" y="633" type="curve" smooth="yes"/>
      <point x="389" y="506"/>
      <point x="274" y="403"/>
      <point x="161" y="393" type="curve"/>
      <point x="36" y="395"/>
      <point x="-19" y="492"/>
      <point x="-19" y="583" type="curve" smooth="yes"/>
      <point x="-19" y="768"/>
      <point x="194" y="957"/>
      <point x="470" y="969" type="curve"/>
      <point x="611" y="967"/>
      <point x="775" y="923"/>
      <point x="775" y="858" type="curve" smooth="yes"/>
      <point x="775" y="838"/>
      <point x="752" y="822"/>
      <point x="730" y="807" type="curve" smooth="yes"/>
      <point x="705" y="790" type="line"/>
      <point x="642" y="740"/>
      <point x="538" y="632"/>
      <point x="459" y="506" type="curve" smooth="yes"/>
      <point x="386" y="389"/>
      <point x="299" y="239"/>
    </contour>
    <contour>
      <point x="1065" y="1124" type="line"/>
      <point x="1108" y="1144"/>
      <point x="1156" y="1168"/>
      <point x="1199" y="1189" type="curve"/>
      <point x="1208" y="1194"/>
      <point x="1216" y="1200"/>
      <point x="1216" y="1209" type="curve" smooth="yes"/>
      <point x="1216" y="1217"/>
      <point x="1211" y="1222"/>
      <point x="1202" y="1222" type="curve" smooth="yes"/>
      <point x="1193" y="1222"/>
      <point x="1185" y="1218"/>
      <point x="1181" y="1215" type="curve" smooth="yes"/>
      <point x="1062" y="1130" type="line"/>
    </contour>
    <contour>
      <point x="1174" y="1124" type="line"/>
      <point x="1217" y="1144"/>
      <point x="1265" y="1168"/>
      <point x="1308" y="1189" type="curve"/>
      <point x="1317" y="1194"/>
      <point x="1325" y="1200"/>
      <point x="1325" y="1209" type="curve" smooth="yes"/>
      <point x="1325" y="1217"/>
      <point x="1320" y="1222"/>
      <point x="1311" y="1222" type="curve" smooth="yes"/>
      <point x="1302" y="1222"/>
      <point x="1294" y="1218"/>
      <point x="1290" y="1215" type="curve" smooth="yes"/>
      <point x="1171" y="1130" type="line"/>
    </contour>
  </outline>
</glyph>
<glyph name="uhungarumlaut" format="2">
  <advance width="374"/>
  <unicode hex="0171"/>
  <outline>
    <contour>
      <point x="308" y="552" type="line"/>
      <point x="185" y="283" type="line"/>
      <point x="183" y="277"/>
      <point x="178" y="268"/>
      <point x="175" y="262" type="curve" smooth="yes"/>
      <point x="115" y="142"/>
      <point x="25" y="6"/>
      <point x="-34" y="6" type="curve" smooth="yes"/>
      <point x="-55" y="6"/>
      <point x="-67" y="27"/>
      <point x="-67" y="60" type="curve" smooth="yes"/>
      <point x="-67" y="83"/>
      <point x="-58" y="119"/>
      <point x="-44" y="151" type="curve" smooth="yes"/>
      <point x="147" y="552" type="line"/>
      <point x="121" y="552" type="line"/>
      <point x="-2" y="283" type="line"/>
      <point x="-57" y="162" type="line" smooth="yes"/>
      <point x="-72" y="128"/>
      <point x="-79" y="94"/>
      <point x="-79" y="68" type="curve" smooth="yes"/>
      <point x="-79" y="26"/>
      <point x="-62" y="-2"/>
      <point x="-35" y="-2" type="curve" smooth="yes"/>
      <point x="13" y="-2"/>
      <point x="73" y="65"/>
      <point x="125" y="152" type="curve"/>
      <point x="115" y="124"/>
      <point x="107" y="90"/>
      <point x="107" y="69" type="curve" smooth="yes"/>
      <point x="107" y="26"/>
      <point x="125" y="-2"/>
      <point x="152" y="-2" type="curve" smooth="yes"/>
      <point x="222" y="-2"/>
      <point x="318" y="146"/>
      <point x="380" y="282" type="curve"/>
      <point x="372" y="284" type="line"/>
      <point x="313" y="156"/>
      <point x="218" y="6"/>
      <point x="152" y="6" type="curve" smooth="yes"/>
      <point x="131" y="6"/>
      <point x="119" y="27"/>
      <point x="119" y="60" type="curve" smooth="yes"/>
      <point x="119" y="83"/>
      <point x="128" y="119"/>
      <point x="142" y="151" type="curve" smooth="yes"/>
      <point x="334" y="552" type="line"/>
    </contour>
    <contour>
      <point x="201" y="692" type="line"/>
      <point x="244" y="712"/>
      <point x="292" y="736"/>
      <point x="335" y="757" type="curve"/>
      <point x="344" y="762"/>
      <point x="352" y="768"/>
      <point x="352" y="777" type="curve" smooth="yes"/>
      <point x="352" y="785"/>
      <point x="347" y="790"/>
      <point x="338" y="790" type="curve" smooth="yes"/>
      <point x="329" y="790"/>
      <point x="321" y="786"/>
      <point x="317" y="783" type="curve" smooth="yes"/>
      <point x="198" y="698" type="line"/>
    </contour>
    <contour>
      <point x="310" y="692" type="line"/>
      <point x="353" y="712"/>
      <point x="401" y="736"/>
      <point x="444" y="757" type="curve"/>
      <point x="453" y="762"/>
      <point x="461" y="768"/>
      <point x="461" y="777" type="curve" smooth="yes"/>
      <point x="461" y="785"/>
      <point x="456" y="790"/>
      <point x="447" y="790" type="curve" smooth="yes"/>
      <point x="438" y="790"/>
      <point x="430" y="786"/>
      <point x="426" y="783" type="curve" smooth="yes"/>
      <point x="307" y="698" type="line"/>
    </contour>
  </outline>
</glyph>
<glyph name="breve" format="2">
  <advance width="414"/>
  <unicode hex="02D8"/>
  <outline>
    <contour>
      <point x="435" y="742" type="line"/>
      <point x="429" y="713"/>
      <point x="399" y="689"/>
      <point x="373" y="689" type="curve" smooth="yes"/>
      <point x="353" y="689"/>
      <point x="340" y="701"/>
      <point x="340" y="718" type="curve" smooth="yes"/>
      <point x="340" y="726"/>
      <point x="341" y="732"/>
      <point x="346" y="742" type="curve"/>
      <point x="325" y="742" type="line"/>
      <point x="320" y="734"/>
      <point x="319" y="727"/>
      <point x="319" y="719" type="curve" smooth="yes"/>
      <point x="319" y="697"/>
      <point x="341" y="681"/>
      <point x="373" y="681" type="curve" smooth="yes"/>
      <point x="411" y="681"/>
      <point x="450" y="707"/>
      <point x="456" y="742" type="curve"/>
    </contour>
  </outline>
</glyph>
<glyph name="dotaccent" format="2">
  <advance width="187"/>
  <unicode hex="02D9"/>
  <outline>
    <contour>
      <point x="195" y="736" type="curve" smooth="yes"/>
      <point x="192" y="725"/>
      <point x="198" y="715"/>
      <point x="210" y="715" type="curve" smooth="yes"/>
      <point x="221" y="715"/>
      <point x="232" y="722"/>
      <point x="236" y="734" type="curve" smooth="yes"/>
      <point x="240" y="747"/>
      <point x="234" y="756"/>
      <point x="222" y="756" type="curve" smooth="yes"/>
      <point x="210" y="756"/>
      <point x="198" y="748"/>
    </contour>
  </outline>
</glyph>
<glyph name="endash" format="2">
  <advance width="504"/>
  <unicode hex="2013"/>
  <outline>
    <contour>
      <point x="79" y="314" type="line"/>
      <point x="411" y="314" type="line"/>
      <point x="411" y="323" type="line"/>
      <point x="79" y="323" type="line"/>
    </contour>
  </outline>
</glyph>
<glyph name="quoteleft" format="2">
  <advance width="227"/>
  <unicode hex="2018"/>
  <outline>
    <contour>
      <point x="201" y="680" type="curve" smooth="yes"/>
      <point x="217" y="680"/>
      <point x="232" y="694"/>
      <point x="232" y="709" type="curve" smooth="yes"/>
      <point x="232" y="718"/>
      <point x="227" y="727"/>
      <point x="215" y="727" type="curve" smooth="yes"/>
      <point x="208" y="727" type="line"/>
      <point x="207" y="729"/>
      <point x="209" y="735"/>
      <point x="210" y="737" type="curve"/>
      <point x="224" y="757"/>
      <point x="239" y="775"/>
      <point x="259" y="789" type="curve"/>
      <point x="257" y="798" type="line"/>
      <point x="226" y="777"/>
      <point x="183" y="734"/>
      <point x="183" y="703" type="curve" smooth="yes"/>
      <point x="183" y="689"/>
      <point x="192" y="680"/>
    </contour>
  </outline>
</glyph>
<glyph name="quoteright" format="2">
  <advance width="213"/>
  <unicode hex="2019"/>
  <outline>
    <contour>
      <point x="211" y="776" type="curve" smooth="yes"/>
      <point x="195" y="776"/>
      <point x="180" y="762"/>
      <point x="180" y="747" type="curve" smooth="yes"/>
      <point x="180" y="738"/>
      <point x="185" y="729"/>
      <point x="197" y="729" type="curve" smooth="yes"/>
      <point x="204" y="729" type="line"/>
      <point x="205" y="727"/>
      <point x="203" y="721"/>
      <point x="202" y="719" type="curve"/>
      <point x="188" y="699"/>
      <point x="173" y="681"/>
      <point x="153" y="667" type="curve"/>
      <point x="155" y="658" type="line"/>
      <point x="186" y="679"/>
      <point x="229" y="722"/>
      <point x="229" y="753" type="curve" smooth="yes"/>
      <point x="229" y="767"/>
      <point x="220" y="776"/>
    </contour>
  </outline>
</glyph>
<glyph name="dagger" format="2">
  <advance width="523"/>
  <unicode hex="2020"/>
  <outline>
    <contour>
      <point x="260" y="-62" type="line"/>
      <point x="260" y="-62"/>
      <point x="260" y="201"/>
      <point x="264" y="201" type="curve"/>
      <point x="264" y="205" type="line"/>
      <point x="247" y="208"/>
      <point x="238" y="220"/>
      <point x="238" y="232" type="curve" smooth="yes"/>
      <point x="238" y="247"/>
      <point x="251" y="260"/>
      <point x="266" y="260" type="curve" smooth="yes"/>
      <point x="282" y="260"/>
      <point x="294" y="247"/>
      <point x="294" y="232" type="curve" smooth="yes"/>
      <point x="294" y="219"/>
      <point x="283" y="208"/>
      <point x="269" y="205" type="curve"/>
      <point x="269" y="201" type="line"/>
      <point x="271" y="201"/>
      <point x="271" y="-32"/>
      <point x="271" y="-52" type="curve" smooth="yes"/>
      <point x="271" y="-62" type="line"/>
      <point x="280" y="-62" type="line"/>
      <point x="280" y="-38"/>
      <point x="293" y="-8"/>
      <point x="306" y="23" type="curve" smooth="yes"/>
      <point x="330" y="76"/>
      <point x="361" y="153"/>
      <point x="361" y="253" type="curve" smooth="yes"/>
      <point x="361" y="318"/>
      <point x="347" y="380"/>
      <point x="334" y="443" type="curve" smooth="yes"/>
      <point x="322" y="499"/>
      <point x="310" y="556"/>
      <point x="307" y="620" type="curve"/>
      <point x="298" y="620" type="line"/>
      <point x="300" y="559"/>
      <point x="313" y="504"/>
      <point x="325" y="448" type="curve" smooth="yes"/>
      <point x="339" y="385"/>
      <point x="352" y="321"/>
      <point x="352" y="253" type="curve" smooth="yes"/>
      <point x="352" y="153"/>
      <point x="321" y="83"/>
      <point x="298" y="30" type="curve" smooth="yes"/>
      <point x="291" y="14"/>
      <point x="285" y="1"/>
      <point x="280" y="-13" type="curve"/>
      <point x="280" y="48"/>
      <point x="279" y="169"/>
      <point x="275" y="197" type="curve"/>
      <point x="290" y="203"/>
      <point x="304" y="217"/>
      <point x="304" y="232" type="curve" smooth="yes"/>
      <point x="304" y="252"/>
      <point x="286" y="270"/>
      <point x="266" y="270" type="curve" smooth="yes"/>
      <point x="246" y="270"/>
      <point x="229" y="252"/>
      <point x="229" y="232" type="curve" smooth="yes"/>
      <point x="229" y="219"/>
      <point x="243" y="204"/>
      <point x="255" y="198" type="curve"/>
      <point x="251" y="168"/>
      <point x="251" y="48"/>
      <point x="251" y="-13" type="curve"/>
      <point x="247" y="-1"/>
      <point x="240" y="14"/>
      <point x="234" y="28" type="curve" smooth="yes"/>
      <point x="210" y="82"/>
      <point x="179" y="151"/>
      <point x="179" y="253" type="curve" smooth="yes"/>
      <point x="179" y="321"/>
      <point x="192" y="385"/>
      <point x="206" y="448" type="curve" smooth="yes"/>
      <point x="218" y="504"/>
      <point x="231" y="559"/>
      <point x="233" y="620" type="curve"/>
      <point x="224" y="620" type="line"/>
      <point x="221" y="556"/>
      <point x="209" y="499"/>
      <point x="197" y="443" type="curve" smooth="yes"/>
      <point x="184" y="380"/>
      <point x="170" y="318"/>
      <point x="170" y="253" type="curve" smooth="yes"/>
      <point x="170" y="153"/>
      <point x="201" y="75"/>
      <point x="225" y="22" type="curve" smooth="yes"/>
      <point x="238" y="-8"/>
      <point x="250" y="-34"/>
      <point x="251" y="-55" type="curve" smooth="yes"/>
      <point x="251" y="-62" type="line"/>
    </contour>
    <contour>
      <point x="347" y="-127" type="line"/>
      <point x="289" y="-125"/>
      <point x="280" y="-87"/>
      <point x="280" y="-81" type="curve"/>
      <point x="250" y="-81" type="line"/>
      <point x="250" y="-97"/>
      <point x="291" y="-133"/>
      <point x="345" y="-133" type="curve"/>
    </contour>
    <contour>
      <point x="265" y="652" type="curve" smooth="yes"/>
      <point x="291" y="652"/>
      <point x="321" y="646"/>
      <point x="331" y="636" type="curve"/>
      <point x="334" y="638" type="line"/>
      <point x="323" y="655"/>
      <point x="292" y="662"/>
      <point x="265" y="662" type="curve" smooth="yes"/>
      <point x="239" y="662"/>
      <point x="208" y="654"/>
      <point x="191" y="637" type="curve"/>
      <point x="198" y="635" type="line"/>
      <point x="209" y="646"/>
      <point x="239" y="652"/>
    </contour>
    <contour>
      <point x="265" y="630" type="curve" smooth="yes"/>
      <point x="291" y="630"/>
      <point x="322" y="622"/>
      <point x="334" y="610" type="curve"/>
      <point x="336" y="617" type="line"/>
      <point x="322" y="632"/>
      <point x="292" y="639"/>
      <point x="265" y="639" type="curve" smooth="yes"/>
      <point x="239" y="639"/>
      <point x="208" y="632"/>
      <point x="193" y="617" type="curve"/>
      <point x="198" y="612" type="line"/>
      <point x="209" y="623"/>
      <point x="239" y="630"/>
    </contour>
    <contour>
      <point x="265" y="675" type="curve" smooth="yes"/>
      <point x="291" y="675"/>
      <point x="322" y="667"/>
      <point x="334" y="655" type="curve"/>
      <point x="336" y="662" type="line"/>
      <point x="322" y="676"/>
      <point x="291" y="684"/>
      <point x="265" y="684" type="curve" smooth="yes"/>
      <point x="239" y="684"/>
      <point x="208" y="676"/>
      <point x="193" y="662" type="curve"/>
      <point x="198" y="657" type="line"/>
      <point x="209" y="668"/>
      <point x="239" y="675"/>
    </contour>
  </outline>
</glyph>
<glyph name="bullet" format="2">
  <advance width="310"/>
  <unicode hex="2022"/>
  <outline>
    <contour>
      <point x="135" y="295" type="line"/>
      <point x="131" y="277"/>
      <point x="139" y="258"/>
      <point x="162" y="258" type="curve" smooth="yes"/>
      <point x="182" y="258"/>
      <point x="204" y="273"/>
      <point x="211" y="294" type="curve" smooth="yes"/>
      <point x="219" y="316"/>
      <point x="207" y="334"/>
      <point x="186" y="334" type="curve" smooth="yes"/>
      <point x="163" y="334"/>
      <point x="143" y="318"/>
      <point x="135" y="296" type="curve"/>
    </contour>
  </outline>
</glyph>
<glyph name="fi" format="2">
  <advance width="402"/>
  <unicode hex="FB01"/>
  <outline>
    <contour>
      <point x="16" y="481" type="line"/>
      <point x="92" y="481" type="line"/>
      <point x="37" y="373"/>
      <point x="-13" y="263"/>
      <point x="-57" y="167" type="curve" smooth="yes"/>
      <point x="-74" y="129" type="line" smooth="yes"/>
      <point x="-166" y="-68"/>
      <point x="-343" y="-452"/>
      <point x="-555" y="-436" type="curve" smooth="yes"/>
      <point x="-599" y="-433"/>
      <point x="-622" y="-402"/>
      <point x="-617" y="-364" type="curve"/>
      <point x="-616" y="-345"/>
      <point x="-605" y="-309"/>
      <point x="-581" y="-306" type="curve"/>
      <point x="-581" y="-302" type="line"/>
      <point x="-584" y="-301" type="line"/>
      <point x="-609" y="-304"/>
      <point x="-630" y="-337"/>
      <point x="-632" y="-357" type="curve" smooth="yes"/>
      <point x="-636" y="-399"/>
      <point x="-609" y="-440"/>
      <point x="-556" y="-444" type="curve" smooth="yes"/>
      <point x="-438" y="-453"/>
      <point x="-336" y="-375"/>
      <point x="-254" y="-262" type="curve" smooth="yes"/>
      <point x="-180" y="-160"/>
      <point x="-118" y="-22"/>
      <point x="-64" y="100" type="curve" smooth="yes"/>
      <point x="-53" y="124" type="line"/>
      <point x="-35" y="165" type="line" smooth="yes"/>
      <point x="6" y="258"/>
      <point x="58" y="378"/>
      <point x="108" y="481" type="curve"/>
      <point x="255" y="481" type="line"/>
      <point x="255" y="489" type="line"/>
      <point x="112" y="489" type="line"/>
      <point x="192" y="650"/>
      <point x="281" y="800"/>
      <point x="374" y="889" type="curve" smooth="yes"/>
      <point x="416" y="928"/>
      <point x="471" y="960"/>
      <point x="522" y="960" type="curve" smooth="yes"/>
      <point x="532" y="960"/>
      <point x="543" y="958"/>
      <point x="553" y="955" type="curve" smooth="yes"/>
      <point x="568" y="950"/>
      <point x="573" y="969"/>
      <point x="561" y="972" type="curve" smooth="yes"/>
      <point x="508" y="985"/>
      <point x="426" y="946"/>
      <point x="370" y="894" type="curve" smooth="yes"/>
      <point x="273" y="803"/>
      <point x="179" y="647"/>
      <point x="96" y="489" type="curve"/>
      <point x="16" y="489" type="line"/>
    </contour>
    <contour>
      <point x="336" y="552" type="line"/>
      <point x="213" y="283" type="line"/>
      <point x="158" y="162" type="line" smooth="yes"/>
      <point x="143" y="128"/>
      <point x="136" y="94"/>
      <point x="136" y="68" type="curve" smooth="yes"/>
      <point x="136" y="26"/>
      <point x="153" y="-2"/>
      <point x="180" y="-2" type="curve" smooth="yes"/>
      <point x="250" y="-2"/>
      <point x="346" y="146"/>
      <point x="408" y="282" type="curve"/>
      <point x="400" y="284" type="line"/>
      <point x="341" y="156"/>
      <point x="246" y="6"/>
      <point x="181" y="6" type="curve" smooth="yes"/>
      <point x="160" y="6"/>
      <point x="148" y="27"/>
      <point x="148" y="60" type="curve" smooth="yes"/>
      <point x="148" y="83"/>
      <point x="157" y="119"/>
      <point x="171" y="151" type="curve" smooth="yes"/>
      <point x="362" y="552" type="line"/>
    </contour>
    <contour>
      <point x="410" y="735" type="line"/>
      <point x="408" y="725"/>
      <point x="413" y="715"/>
      <point x="425" y="715" type="curve" smooth="yes"/>
      <point x="436" y="715"/>
      <point x="448" y="722"/>
      <point x="451" y="734" type="curve"/>
      <point x="456" y="747"/>
      <point x="449" y="756"/>
      <point x="437" y="756" type="curve" smooth="yes"/>
      <point x="425" y="756"/>
      <point x="414" y="748"/>
      <point x="410" y="736" type="curve"/>
    </contour>
  </outline>
</glyph>
<glyph name="fl" format="2">
  <advance width="402"/>
  <unicode hex="FB02"/>
  <outline>
    <contour>
      <point x="16" y="481" type="line"/>
      <point x="89" y="481" type="line"/>
      <point x="28" y="360"/>
      <point x="-26" y="234"/>
      <point x="-74" y="129" type="curve" smooth="yes"/>
      <point x="-162" y="-65"/>
      <point x="-336" y="-436"/>
      <point x="-542" y="-436" type="curve" smooth="yes"/>
      <point x="-589" y="-436"/>
      <point x="-618" y="-408"/>
      <point x="-618" y="-374" type="curve" smooth="yes"/>
      <point x="-618" y="-349"/>
      <point x="-608" y="-311"/>
      <point x="-581" y="-306" type="curve"/>
      <point x="-581" y="-302" type="line"/>
      <point x="-584" y="-301" type="line"/>
      <point x="-613" y="-307"/>
      <point x="-632" y="-339"/>
      <point x="-632" y="-365" type="curve" smooth="yes"/>
      <point x="-632" y="-420"/>
      <point x="-584" y="-445"/>
      <point x="-538" y="-445" type="curve" smooth="yes"/>
      <point x="-428" y="-445"/>
      <point x="-332" y="-369"/>
      <point x="-254" y="-262" type="curve" smooth="yes"/>
      <point x="-180" y="-160"/>
      <point x="-117" y="-22"/>
      <point x="-53" y="124" type="curve" smooth="yes"/>
      <point x="-7" y="229"/>
      <point x="48" y="361"/>
      <point x="106" y="481" type="curve"/>
      <point x="255" y="481" type="line"/>
      <point x="255" y="489" type="line"/>
      <point x="110" y="489" type="line"/>
      <point x="116" y="503"/>
      <point x="126" y="520"/>
      <point x="133" y="534" type="curve" smooth="yes"/>
      <point x="147" y="562" type="line"/>
      <point x="159" y="560"/>
      <point x="173" y="560"/>
      <point x="186" y="560" type="curve" smooth="yes"/>
      <point x="247" y="560"/>
      <point x="303" y="573"/>
      <point x="356" y="596" type="curve"/>
      <point x="158" y="162" type="line" smooth="yes"/>
      <point x="143" y="128"/>
      <point x="136" y="94"/>
      <point x="136" y="68" type="curve" smooth="yes"/>
      <point x="136" y="26"/>
      <point x="153" y="-2"/>
      <point x="180" y="-2" type="curve" smooth="yes"/>
      <point x="250" y="-2"/>
      <point x="346" y="146"/>
      <point x="408" y="282" type="curve"/>
      <point x="400" y="284" type="line"/>
      <point x="341" y="156"/>
      <point x="246" y="6"/>
      <point x="181" y="6" type="curve" smooth="yes"/>
      <point x="160" y="6"/>
      <point x="148" y="27"/>
      <point x="148" y="60" type="curve" smooth="yes"/>
      <point x="148" y="84"/>
      <point x="155" y="117"/>
      <point x="171" y="151" type="curve" smooth="yes"/>
      <point x="385" y="610" type="line"/>
      <point x="482" y="665"/>
      <point x="636" y="796"/>
      <point x="636" y="908" type="curve" smooth="yes"/>
      <point x="636" y="956"/>
      <point x="605" y="998"/>
      <point x="550" y="998" type="curve" smooth="yes"/>
      <point x="410" y="998"/>
      <point x="262" y="798"/>
      <point x="137" y="571" type="curve"/>
      <point x="19" y="588"/>
      <point x="-71" y="665"/>
      <point x="-71" y="778" type="curve" smooth="yes"/>
      <point x="-71" y="898"/>
      <point x="22" y="1017"/>
      <point x="144" y="1017" type="curve" smooth="yes"/>
      <point x="212" y="1017"/>
      <point x="267" y="969"/>
      <point x="267" y="910" type="curve" smooth="yes"/>
      <point x="267" y="838"/>
      <point x="210" y="779"/>
      <point x="142" y="779" type="curve" smooth="yes"/>
      <point x="128" y="779"/>
      <point x="91" y="779"/>
      <point x="77" y="804" type="curve"/>
      <point x="67" y="802" type="line"/>
      <point x="87" y="771"/>
      <point x="128" y="771"/>
      <point x="142" y="771" type="curve" smooth="yes"/>
      <point x="217" y="771"/>
      <point x="280" y="837"/>
      <point x="280" y="906" type="curve" smooth="yes"/>
      <point x="280" y="970"/>
      <point x="220" y="1025"/>
      <point x="145" y="1025" type="curve" smooth="yes"/>
      <point x="15" y="1025"/>
      <point x="-88" y="901"/>
      <point x="-88" y="785" type="curve" smooth="yes"/>
      <point x="-88" y="665"/>
      <point x="6" y="580"/>
      <point x="133" y="563" type="curve"/>
      <point x="121" y="539"/>
      <point x="105" y="512"/>
      <point x="93" y="489" type="curve"/>
      <point x="16" y="489" type="line"/>
    </contour>
    <contour>
      <point x="548" y="990" type="curve" smooth="yes"/>
      <point x="593" y="990"/>
      <point x="618" y="952"/>
      <point x="618" y="909" type="curve" smooth="yes"/>
      <point x="618" y="801"/>
      <point x="471" y="672"/>
      <point x="392" y="625" type="curve"/>
      <point x="507" y="872" type="line"/>
      <point x="482" y="872" type="line"/>
      <point x="362" y="610" type="line"/>
      <point x="310" y="586"/>
      <point x="247" y="568"/>
      <point x="186" y="568" type="curve" smooth="yes"/>
      <point x="174" y="568"/>
      <point x="163" y="569"/>
      <point x="151" y="570" type="curve"/>
      <point x="271" y="798"/>
      <point x="410" y="990"/>
    </contour>
  </outline>
</glyph>
<glyph name="T.2" format="2">
  <advance width="1015"/>
  <outline>
    <contour>
      <point x="496" y="200" type="line"/>
      <point x="510" y="180"/>
      <point x="515" y="156"/>
      <point x="512" y="133" type="curve" smooth="yes"/>
      <point x="505" y="53"/>
      <point x="420" y="-21"/>
      <point x="326" y="-21" type="curve" smooth="yes"/>
      <point x="245" y="-21"/>
      <point x="174" y="34"/>
      <point x="185" y="156" type="curve" smooth="yes"/>
      <point x="200" y="323"/>
      <point x="342" y="446"/>
      <point x="515" y="446" type="curve" smooth="yes"/>
      <point x="663" y="446"/>
      <point x="733" y="326"/>
      <point x="729" y="222" type="curve" smooth="yes"/>
      <point x="722" y="20"/>
      <point x="492" y="-228"/>
      <point x="227" y="-228" type="curve" smooth="yes"/>
      <point x="3" y="-228"/>
      <point x="-103" y="-60"/>
      <point x="-96" y="138" type="curve" smooth="yes"/>
      <point x="-72" y="449"/>
      <point x="263" y="774"/>
      <point x="568" y="788" type="curve"/>
      <point x="576" y="782"/>
      <point x="584" y="777"/>
      <point x="593" y="772" type="curve"/>
      <point x="620" y="754" type="line" smooth="yes"/>
      <point x="720" y="689"/>
      <point x="813" y="629"/>
      <point x="922" y="629" type="curve" smooth="yes"/>
      <point x="948" y="629"/>
      <point x="963" y="646"/>
      <point x="963" y="665" type="curve" smooth="yes"/>
      <point x="963" y="706"/>
      <point x="857" y="796"/>
      <point x="575" y="796" type="curve" smooth="yes"/>
      <point x="572" y="796" type="line"/>
      <point x="463" y="862"/>
      <point x="322" y="939"/>
      <point x="187" y="939" type="curve" smooth="yes"/>
      <point x="-1" y="939"/>
      <point x="-108" y="816"/>
      <point x="-83" y="728" type="curve"/>
      <point x="-74" y="730" type="line"/>
      <point x="-97" y="814"/>
      <point x="31" y="919"/>
      <point x="211" y="919" type="curve" smooth="yes"/>
      <point x="342" y="919"/>
      <point x="452" y="859"/>
      <point x="556" y="795" type="curve"/>
      <point x="252" y="783"/>
      <point x="-93" y="476"/>
      <point x="-117" y="158" type="curve" smooth="yes"/>
      <point x="-125" y="-44"/>
      <point x="-13" y="-242"/>
      <point x="236" y="-242" type="curve" smooth="yes"/>
      <point x="506" y="-242"/>
      <point x="727" y="4"/>
      <point x="742" y="207" type="curve" smooth="yes"/>
      <point x="745" y="324"/>
      <point x="671" y="454"/>
      <point x="516" y="454" type="curve" smooth="yes"/>
      <point x="336" y="454"/>
      <point x="181" y="326"/>
      <point x="166" y="157" type="curve" smooth="yes"/>
      <point x="156" y="34"/>
      <point x="232" y="-29"/>
      <point x="323" y="-29" type="curve" smooth="yes"/>
      <point x="422" y="-29"/>
      <point x="515" y="51"/>
      <point x="526" y="133" type="curve" smooth="yes"/>
      <point x="529" y="161"/>
      <point x="521" y="185"/>
      <point x="502" y="206" type="curve"/>
    </contour>
    <contour>
      <point x="918" y="645" type="curve" smooth="yes"/>
      <point x="818" y="645"/>
      <point x="695" y="719"/>
      <point x="597" y="780" type="curve" smooth="yes"/>
      <point x="583" y="788" type="line"/>
      <point x="853" y="785"/>
      <point x="955" y="702"/>
      <point x="955" y="665" type="curve" smooth="yes"/>
      <point x="955" y="650"/>
      <point x="937" y="645"/>
    </contour>
  </outline>
</glyph>
<glyph name="T_h" format="2">
  <advance width="1076"/>
  <outline>
    <contour>
      <point x="45" y="524" type="line"/>
      <point x="34" y="539"/>
      <point x="29" y="555"/>
      <point x="29" y="571" type="curve" smooth="yes"/>
      <point x="29" y="665"/>
      <point x="126" y="733"/>
      <point x="211" y="733" type="curve" smooth="yes"/>
      <point x="286" y="733"/>
      <point x="354" y="679"/>
      <point x="343" y="567" type="curve" smooth="yes"/>
      <point x="324" y="434"/>
      <point x="205" y="325"/>
      <point x="79" y="317" type="curve"/>
      <point x="-65" y="320"/>
      <point x="-128" y="431"/>
      <point x="-128" y="536" type="curve" smooth="yes"/>
      <point x="-128" y="739"/>
      <point x="84" y="968"/>
      <point x="381" y="968" type="curve" smooth="yes"/>
      <point x="503" y="968"/>
      <point x="645" y="907"/>
      <point x="776" y="850" type="curve" smooth="yes"/>
      <point x="820" y="830"/>
      <point x="865" y="811"/>
      <point x="909" y="794" type="curve"/>
      <point x="904" y="786"/>
      <point x="896" y="773"/>
      <point x="890" y="765" type="curve"/>
      <point x="839" y="674"/>
      <point x="796" y="572"/>
      <point x="763" y="488" type="curve" smooth="yes"/>
      <point x="738" y="427"/>
      <point x="715" y="369"/>
      <point x="688" y="314" type="curve" smooth="yes"/>
      <point x="528" y="-3" type="line"/>
      <point x="552" y="-3" type="line"/>
      <point x="630" y="157" type="line"/>
      <point x="633" y="166"/>
      <point x="640" y="178"/>
      <point x="644" y="187" type="curve"/>
      <point x="715" y="325"/>
      <point x="873" y="558"/>
      <point x="950" y="558" type="curve" smooth="yes"/>
      <point x="971" y="558"/>
      <point x="998" y="546"/>
      <point x="991" y="493" type="curve" smooth="yes"/>
      <point x="985" y="441"/>
      <point x="956" y="399"/>
      <point x="925" y="353" type="curve" smooth="yes"/>
      <point x="895" y="307" type="line" smooth="yes"/>
      <point x="850" y="236"/>
      <point x="815" y="168"/>
      <point x="806" y="92" type="curve" smooth="yes"/>
      <point x="801" y="42"/>
      <point x="823" y="-2"/>
      <point x="854" y="-2" type="curve" smooth="yes"/>
      <point x="924" y="-2"/>
      <point x="1020" y="146"/>
      <point x="1082" y="282" type="curve"/>
      <point x="1074" y="284" type="line"/>
      <point x="1015" y="156"/>
      <point x="921" y="7"/>
      <point x="855" y="7" type="curve" smooth="yes"/>
      <point x="830" y="7"/>
      <point x="812" y="40"/>
      <point x="818" y="86" type="curve" smooth="yes"/>
      <point x="826" y="157"/>
      <point x="864" y="216"/>
      <point x="906" y="281" type="curve" smooth="yes"/>
      <point x="917" y="298" type="line" smooth="yes"/>
      <point x="955" y="356"/>
      <point x="994" y="434"/>
      <point x="1002" y="490" type="curve" smooth="yes"/>
      <point x="1007" y="543"/>
      <point x="974" y="567"/>
      <point x="950" y="567" type="curve" smooth="yes"/>
      <point x="889" y="567"/>
      <point x="788" y="444"/>
      <point x="711" y="322" type="curve"/>
      <point x="712" y="324" type="line" smooth="yes"/>
      <point x="738" y="377"/>
      <point x="764" y="437"/>
      <point x="787" y="493" type="curve" smooth="yes"/>
      <point x="820" y="570"/>
      <point x="859" y="664"/>
      <point x="907" y="750" type="curve" smooth="yes"/>
      <point x="914" y="763"/>
      <point x="921" y="773"/>
      <point x="930" y="786" type="curve"/>
      <point x="1006" y="758"/>
      <point x="1082" y="737"/>
      <point x="1154" y="736" type="curve" smooth="yes"/>
      <point x="1237" y="736"/>
      <point x="1361" y="762"/>
      <point x="1361" y="871" type="curve" smooth="yes"/>
      <point x="1361" y="942"/>
      <point x="1293" y="974"/>
      <point x="1209" y="974" type="curve" smooth="yes"/>
      <point x="1088" y="974"/>
      <point x="979" y="896"/>
      <point x="913" y="802" type="curve"/>
      <point x="871" y="819"/>
      <point x="830" y="837"/>
      <point x="787" y="856" type="curve" smooth="yes"/>
      <point x="652" y="916"/>
      <point x="513" y="978"/>
      <point x="379" y="978" type="curve" smooth="yes"/>
      <point x="70" y="978"/>
      <point x="-141" y="758"/>
      <point x="-141" y="548" type="curve" smooth="yes"/>
      <point x="-141" y="435"/>
      <point x="-75" y="313"/>
      <point x="69" y="309" type="curve" smooth="yes"/>
      <point x="207" y="309"/>
      <point x="340" y="426"/>
      <point x="360" y="566" type="curve" smooth="yes"/>
      <point x="372" y="679"/>
      <point x="297" y="741"/>
      <point x="212" y="741" type="curve" smooth="yes"/>
      <point x="122" y="741"/>
      <point x="16" y="662"/>
      <point x="16" y="573" type="curve" smooth="yes"/>
      <point x="16" y="552"/>
      <point x="22" y="532"/>
      <point x="40" y="523" type="curve"/>
    </contour>
    <contour>
      <point x="1216" y="966" type="curve" smooth="yes"/>
      <point x="1287" y="966"/>
      <point x="1348" y="937"/>
      <point x="1348" y="876" type="curve" smooth="yes"/>
      <point x="1348" y="784"/>
      <point x="1233" y="744"/>
      <point x="1154" y="744" type="curve" smooth="yes"/>
      <point x="1084" y="745"/>
      <point x="1011" y="765"/>
      <point x="935" y="794" type="curve"/>
      <point x="999" y="884"/>
      <point x="1107" y="965"/>
    </contour>
    <contour>
      <point x="737" y="801" type="line"/>
      <point x="584" y="751"/>
      <point x="460" y="511"/>
      <point x="375" y="344" type="curve" smooth="yes"/>
      <point x="364" y="323"/>
      <point x="354" y="302"/>
      <point x="344" y="284" type="curve" smooth="yes"/>
      <point x="277" y="157"/>
      <point x="128" y="-60"/>
      <point x="-44" y="-50" type="curve" smooth="yes"/>
      <point x="-86" y="-48"/>
      <point x="-148" y="-15"/>
      <point x="-148" y="48" type="curve" smooth="yes"/>
      <point x="-148" y="61"/>
      <point x="-145" y="76"/>
      <point x="-138" y="93" type="curve"/>
      <point x="-142" y="95" type="line"/>
      <point x="-152" y="76"/>
      <point x="-155" y="57"/>
      <point x="-155" y="40" type="curve" smooth="yes"/>
      <point x="-155" y="-26"/>
      <point x="-92" y="-58"/>
      <point x="-44" y="-60" type="curve" smooth="yes"/>
      <point x="161" y="-71"/>
      <point x="288" y="123"/>
      <point x="373" y="286" type="curve" smooth="yes"/>
      <point x="387" y="312"/>
      <point x="401" y="343"/>
      <point x="417" y="375" type="curve" smooth="yes"/>
      <point x="495" y="537"/>
      <point x="598" y="752"/>
      <point x="734" y="785" type="curve"/>
    </contour>
  </outline>
</glyph>
<glyph name="o_n" format="2">
  <advance width="829"/>
  <outline>
    <contour>
      <point x="607" y="-2" type="curve" smooth="yes"/>
      <point x="677" y="-2"/>
      <point x="773" y="146"/>
      <point x="835" y="282" type="curve"/>
      <point x="827" y="284" type="line"/>
      <point x="768" y="156"/>
      <point x="674" y="7"/>
      <point x="608" y="7" type="curve" smooth="yes"/>
      <point x="583" y="7"/>
      <point x="565" y="40"/>
      <point x="571" y="86" type="curve" smooth="yes"/>
      <point x="579" y="157"/>
      <point x="617" y="216"/>
      <point x="659" y="281" type="curve" smooth="yes"/>
      <point x="670" y="298" type="line" smooth="yes"/>
      <point x="708" y="356"/>
      <point x="747" y="434"/>
      <point x="755" y="490" type="curve" smooth="yes"/>
      <point x="760" y="543"/>
      <point x="727" y="567"/>
      <point x="703" y="567" type="curve" smooth="yes"/>
      <point x="655" y="567"/>
      <point x="585" y="503"/>
      <point x="521" y="422" type="curve"/>
      <point x="527" y="445"/>
      <point x="531" y="465"/>
      <point x="531" y="484" type="curve" smooth="yes"/>
      <point x="531" y="537"/>
      <point x="503" y="566"/>
      <point x="458" y="567" type="curve" smooth="yes"/>
      <point x="412" y="568"/>
      <point x="362" y="543"/>
      <point x="317" y="505" type="curve"/>
      <point x="307" y="541"/>
      <point x="285" y="565"/>
      <point x="254" y="565" type="curve" smooth="yes"/>
      <point x="176" y="565"/>
      <point x="63" y="436"/>
      <point x="-2" y="283" type="curve" smooth="yes"/>
      <point x="-25" y="226"/>
      <point x="-36" y="173"/>
      <point x="-39" y="116" type="curve" smooth="yes"/>
      <point x="-43" y="40"/>
      <point x="-17" y="-12"/>
      <point x="31" y="-14" type="curve" smooth="yes"/>
      <point x="109" y="-14"/>
      <point x="222" y="115"/>
      <point x="287" y="268" type="curve" smooth="yes"/>
      <point x="310" y="325"/>
      <point x="321" y="378"/>
      <point x="324" y="435" type="curve" smooth="yes"/>
      <point x="325" y="457"/>
      <point x="324" y="479"/>
      <point x="320" y="496" type="curve"/>
      <point x="361" y="533"/>
      <point x="412" y="559"/>
      <point x="458" y="558" type="curve" smooth="yes"/>
      <point x="497" y="557"/>
      <point x="520" y="530"/>
      <point x="520" y="484" type="curve" smooth="yes"/>
      <point x="520" y="461"/>
      <point x="508" y="421"/>
      <point x="494" y="385" type="curve"/>
      <point x="441" y="313"/>
      <point x="386" y="223"/>
      <point x="359" y="165" type="curve" smooth="yes"/>
      <point x="316" y="75"/>
      <point x="279" y="-2"/>
      <point x="308" y="-2" type="curve" smooth="yes"/>
      <point x="325" y="-2"/>
      <point x="360" y="48"/>
      <point x="425" y="187" type="curve" smooth="yes"/>
      <point x="433" y="204" type="line" smooth="yes"/>
      <point x="460" y="262"/>
      <point x="494" y="335"/>
      <point x="514" y="395" type="curve"/>
      <point x="581" y="483"/>
      <point x="656" y="558"/>
      <point x="703" y="558" type="curve" smooth="yes"/>
      <point x="724" y="558"/>
      <point x="751" y="546"/>
      <point x="744" y="493" type="curve" smooth="yes"/>
      <point x="738" y="441"/>
      <point x="709" y="399"/>
      <point x="678" y="353" type="curve" smooth="yes"/>
      <point x="648" y="307" type="line" smooth="yes"/>
      <point x="603" y="236"/>
      <point x="568" y="168"/>
      <point x="559" y="92" type="curve" smooth="yes"/>
      <point x="554" y="42"/>
      <point x="576" y="-2"/>
    </contour>
    <contour>
      <point x="256" y="556" type="curve" smooth="yes"/>
      <point x="284" y="556"/>
      <point x="299" y="530"/>
      <point x="304" y="493" type="curve"/>
      <point x="245" y="433"/>
      <point x="195" y="340"/>
      <point x="195" y="263" type="curve" smooth="yes"/>
      <point x="195" y="234"/>
      <point x="207" y="207"/>
      <point x="232" y="207" type="curve" smooth="yes"/>
      <point x="235" y="207" type="line"/>
      <point x="172" y="86"/>
      <point x="89" y="-5"/>
      <point x="31" y="-5" type="curve"/>
      <point x="-7" y="-2"/>
      <point x="-25" y="42"/>
      <point x="-21" y="107" type="curve" smooth="yes"/>
      <point x="-18" y="162"/>
      <point x="-6" y="216"/>
      <point x="18" y="274" type="curve" smooth="yes"/>
      <point x="79" y="429"/>
      <point x="187" y="556"/>
    </contour>
    <contour>
      <point x="306" y="444" type="curve" smooth="yes"/>
      <point x="303" y="390"/>
      <point x="289" y="335"/>
      <point x="267" y="277" type="curve" smooth="yes"/>
      <point x="261" y="261"/>
      <point x="248" y="234"/>
      <point x="241" y="219" type="curve"/>
      <point x="237" y="217"/>
      <point x="234" y="216"/>
      <point x="232" y="216" type="curve" smooth="yes"/>
      <point x="210" y="216"/>
      <point x="205" y="240"/>
      <point x="205" y="264" type="curve" smooth="yes"/>
      <point x="205" y="341"/>
      <point x="248" y="425"/>
      <point x="306" y="483" type="curve"/>
      <point x="308" y="471"/>
      <point x="307" y="458"/>
    </contour>
    <contour>
      <point x="403" y="194" type="curve" smooth="yes"/>
      <point x="369" y="128"/>
      <point x="349" y="84"/>
      <point x="335" y="56" type="curve" smooth="yes"/>
      <point x="315" y="16"/>
      <point x="311" y="7"/>
      <point x="308" y="7" type="curve" smooth="yes"/>
      <point x="296" y="7"/>
      <point x="324" y="74"/>
      <point x="367" y="160" type="curve" smooth="yes"/>
      <point x="389" y="209"/>
      <point x="430" y="280"/>
      <point x="478" y="348" type="curve"/>
      <point x="451" y="285"/>
      <point x="423" y="233"/>
    </contour>
  </outline>
</glyph>
